<svg width="89" height="47" fill="none" xmlns="http://www.w3.org/2000/svg"><path d="M44.74 22.43a3.345 3.345 0 0 1-.57-2.088v-3.028c0-.928.189-1.633.567-2.116.378-.482 1.028-.723 1.949-.72.865 0 1.48.205 1.843.616.396.524.589 1.164.544 1.81v.712h-1.547v-.72a4.08 4.08 0 0 0-.045-.706.702.702 0 0 0-.221-.419.827.827 0 0 0-.561-.163.877.877 0 0 0-.59.172.826.826 0 0 0-.257.462 3.897 3.897 0 0 0-.06.749v3.674c-.025.355.044.71.198 1.032.077.109.184.195.31.25a.771.771 0 0 0 .399.058.78.78 0 0 0 .548-.167.762.762 0 0 0 .23-.446 4.5 4.5 0 0 0 .049-.736v-.746h1.547v.681a2.99 2.99 0 0 1-.535 1.903c-.355.45-.961.675-1.852.675-.891 0-1.564-.24-1.946-.74zM51.186 22.46c-.391-.47-.587-1.158-.587-2.066v-3.185c0-.899.196-1.58.587-2.042.39-.461 1.044-.691 1.961-.69.91 0 1.56.23 1.952.69.39.462.59 1.143.59 2.042v3.185c0 .9-.2 1.59-.597 2.064-.397.474-1.044.71-1.945.71-.9 0-1.567-.24-1.961-.707zm2.682-.763c.14-.295.204-.619.186-.943v-3.899a1.894 1.894 0 0 0-.183-.924.74.74 0 0 0-.316-.254.774.774 0 0 0-.408-.054.784.784 0 0 0-.41.055.75.75 0 0 0-.318.253c-.14.289-.204.606-.185.924v3.918c-.02.324.044.648.185.942.09.1.202.18.327.234a.996.996 0 0 0 1.122-.234v-.018zM57.55 14.57h1.667l1.253 5.876 1.282-5.875h1.622l.163 8.48H62.34l-.128-5.894-1.238 5.895h-.961l-1.282-5.916-.119 5.916H57.4l.15-8.481zM65.406 14.57h2.596c1.496 0 2.244.803 2.244 2.409 0 1.537-.788 2.305-2.362 2.303h-.885v3.77h-1.602l.01-8.481zm2.218 3.625a1.145 1.145 0 0 0 .881-.268c.184-.286.265-.623.231-.957a2.944 2.944 0 0 0-.077-.77.647.647 0 0 0-.32-.404 1.51 1.51 0 0 0-.715-.135h-.622v2.534h.622zM72.556 14.57h1.721l1.766 8.482h-1.494l-.349-1.956h-1.535l-.36 1.956H70.79l1.766-8.481zm1.471 5.544l-.6-3.56-.599 3.56h1.199zM77.469 14.57h1.122l2.147 4.838v-4.837h1.33v8.48h-1.067l-2.16-5.05v5.05h-1.375l.003-8.48zM85.184 19.818l-1.786-5.236h1.504l1.09 3.363 1.022-3.363h1.47l-1.762 5.236v3.233h-1.538v-3.233zM47.215 26.76v.443h-1.308v3.446h-.548v-3.446h-1.314v-.444h3.17zM51.314 30.65h-.423a.175.175 0 0 1-.119-.037.198.198 0 0 1-.07-.09l-.378-.924H48.51l-.378.924a.261.261 0 0 1-.058.105.181.181 0 0 1-.119.037h-.423l1.603-3.89h.557l1.622 3.875zm-2.654-1.445h1.513l-.64-1.583a3.04 3.04 0 0 1-.12-.366c-.022.074-.041.145-.06.206l-.058.163-.635 1.58zM54.077 30.267c.1.006.2.006.3 0 .087-.008.173-.023.257-.046.079-.018.156-.042.231-.07.07-.028.141-.062.215-.096v-.875h-.641a.12.12 0 0 1-.087-.03.089.089 0 0 1-.032-.072v-.298h1.244v1.49a2.198 2.198 0 0 1-.676.317 2.609 2.609 0 0 1-.401.08 4.38 4.38 0 0 1-.468.026 2.222 2.222 0 0 1-.808-.145 1.931 1.931 0 0 1-.64-.407 1.88 1.88 0 0 1-.414-.616 2.135 2.135 0 0 1-.147-.807 2.217 2.217 0 0 1 .144-.813c.092-.23.233-.44.413-.616.183-.175.401-.312.641-.404.275-.099.566-.148.859-.144.15 0 .298.01.446.034.13.02.258.053.38.098.113.04.22.092.321.154.099.06.192.129.28.203l-.155.24a.142.142 0 0 1-.125.075.195.195 0 0 1-.099-.031 1.971 1.971 0 0 1-.157-.093 1.353 1.353 0 0 0-.215-.104 1.846 1.846 0 0 0-.295-.087 2.228 2.228 0 0 0-.407-.034 1.723 1.723 0 0 0-.618.108 1.335 1.335 0 0 0-.471.308 1.37 1.37 0 0 0-.298.484 2.012 2.012 0 0 0 0 1.297 1.395 1.395 0 0 0 .788.797c.204.068.42.094.635.077zM59.185 30.206h1.75v.443H58.65v-3.89h.548l-.013 3.447zM62.756 30.65h-.548v-3.89h.548v3.89zM64.794 26.778c.032.018.06.042.083.071l2.343 2.932a1.002 1.002 0 0 1 0-.139V26.744h.478v3.905h-.276a.236.236 0 0 1-.119-.021.317.317 0 0 1-.086-.074l-2.34-2.929v3.024h-.458v-3.89h.285c.031 0 .062.007.09.02zM71.732 26.76v.428H69.79v1.284h1.574v.413H69.79v1.327h1.942v.428h-2.506v-3.88h2.506zM14.303 2.738l24.335 6.64v23.267l-24.334-6.637V2.739zM12.743.755V27.14l27.453 7.493V8.252L12.743.754z" fill="#AFB1B8"/><path d="M27.456 46.88L0 39.38V12.999l27.456 7.496V46.88z" fill="#AFB1B8"/><path d="M13.198 2.44l24.017 6.556-10.214 9.818-24.02-6.56L13.198 2.44zM12.743.755L0 13l27.456 7.496L40.197 8.25 12.743.755zM29.002 45.395l11.194-10.76-11.194-3.058v13.818z" fill="#AFB1B8"/></svg>