<svg width="80" height="43" fill="none" xmlns="http://www.w3.org/2000/svg"><path d="M12.402 13.024H12.4c-2.263 0-4.097 1.814-4.097 4.051v.003c0 2.238 1.834 4.052 4.096 4.052h.003c2.263 0 4.097-1.814 4.097-4.052v-.003c0-2.237-1.834-4.051-4.097-4.051zM42.637 11.728a11.688 11.688 0 0 0-3.48-8.285A11.947 11.947 0 0 0 30.784 0a11.947 11.947 0 0 0-8.379 3.441 11.689 11.689 0 0 0-3.48 8.287v17.14s23.71-2.612 23.713-17.137v-.003zM0 34.493a8.14 8.14 0 0 0 2.422 5.765 8.32 8.32 0 0 0 5.827 2.398 8.32 8.32 0 0 0 5.826-2.397 8.14 8.14 0 0 0 2.423-5.763V22.57S0 24.389 0 34.493zm8.25 2.137c-.428 0-.846-.125-1.2-.36a2.142 2.142 0 0 1-.797-.959 2.115 2.115 0 0 1 .469-2.328 2.181 2.181 0 0 1 2.354-.463c.395.161.732.435.97.786a2.12 2.12 0 0 1 .201 2.008 2.135 2.135 0 0 1-1.17 1.16 2.18 2.18 0 0 1-.828.164v-.008zM25.089 35.24H23.4v1.743h-.878v-4.265H25.3v.712H23.4v1.101h1.688v.71zm4.225-.293c0 .42-.075.788-.223 1.105-.149.316-.361.56-.639.732a1.755 1.755 0 0 1-.95.258c-.353 0-.668-.085-.945-.255a1.695 1.695 0 0 1-.645-.727 2.51 2.51 0 0 1-.231-1.09v-.21c0-.42.075-.79.225-1.108.153-.32.367-.565.642-.735.277-.172.594-.258.95-.258.354 0 .67.086.945.258.278.17.492.415.642.735.152.319.229.687.229 1.105v.19zm-.891-.193c0-.447-.08-.787-.24-1.02a.783.783 0 0 0-.686-.348.782.782 0 0 0-.683.345c-.16.229-.24.565-.243 1.008v.208c0 .436.08.774.24 1.014.16.24.391.36.692.36a.775.775 0 0 0 .68-.345c.158-.233.238-.57.24-1.014v-.208zm3.741 1.11a.447.447 0 0 0-.176-.38c-.117-.09-.328-.184-.633-.282a4.566 4.566 0 0 1-.723-.293c-.485-.261-.727-.614-.727-1.057 0-.23.065-.436.194-.616.13-.181.317-.323.56-.424.243-.102.517-.153.82-.153.304 0 .576.056.814.167.238.11.423.265.554.466.133.201.199.43.199.685h-.879c0-.195-.062-.346-.185-.454-.123-.109-.296-.164-.518-.164-.215 0-.382.046-.501.138a.426.426 0 0 0-.179.358c0 .138.07.254.208.348.14.094.347.182.618.264.5.15.865.337 1.093.56.229.222.343.5.343.831 0 .37-.14.66-.419.87-.28.21-.655.314-1.128.314-.328 0-.627-.06-.896-.179a1.44 1.44 0 0 1-.619-.495 1.27 1.27 0 0 1-.21-.726h.881c0 .47.281.706.844.706.209 0 .372-.042.49-.126a.418.418 0 0 0 .175-.358zm4.69-2.434h-1.306v3.553h-.88V33.43H33.38v-.712h3.474v.712zm3.07 1.705h-1.687v1.142h1.98v.706h-2.859v-4.265h2.854v.712h-1.975v1.016h1.688v.689zm2.389.287h-.7v1.561h-.88v-4.265h1.585c.504 0 .893.112 1.166.337.274.224.41.542.41.952 0 .29-.063.534-.19.73a1.282 1.282 0 0 1-.571.462l.923 1.743v.041h-.944l-.8-1.561zm-.7-.712h.708c.221 0 .392-.056.513-.167a.607.607 0 0 0 .182-.466c0-.201-.058-.36-.173-.474-.114-.116-.288-.173-.525-.173h-.706v1.28zm5.325.77v1.503h-.878v-4.265h1.664c.32 0 .601.058.843.176.245.117.432.284.563.5.13.215.196.46.196.736 0 .418-.143.748-.43.99-.286.24-.681.36-1.187.36h-.77zm0-.711h.786c.232 0 .409-.055.53-.164.123-.11.184-.266.184-.47a.703.703 0 0 0-.184-.506c-.123-.129-.293-.195-.51-.2h-.806v1.34zm5.561.366h-1.688v1.142h1.981v.706h-2.86v-4.265h2.854v.712h-1.974v1.016h1.687v.689zm4.078-1.705h-1.306v3.553h-.88V33.43h-1.288v-.712h3.474v.712zm3.07 1.705H57.96v1.142h1.98v.706h-2.859v-4.265h2.854v.712H57.96v1.016h1.688v.689zm2.388.287h-.7v1.561h-.879v-4.265h1.585c.504 0 .893.112 1.166.337.273.224.41.542.41.952 0 .29-.063.534-.19.73a1.283 1.283 0 0 1-.572.462l.923 1.743v.041h-.943l-.8-1.561zm-.7-.712h.709c.22 0 .392-.056.513-.167a.607.607 0 0 0 .181-.466c0-.201-.057-.36-.173-.474-.113-.116-.288-.173-.524-.173h-.706v1.28zm5.165 1.154a.447.447 0 0 0-.176-.38c-.117-.09-.328-.184-.633-.282a4.56 4.56 0 0 1-.723-.293c-.485-.261-.727-.614-.727-1.057 0-.23.065-.436.194-.616.13-.181.317-.323.56-.424.243-.102.517-.153.82-.153.304 0 .576.056.814.167.238.11.423.265.554.466.132.201.199.43.199.685h-.88c0-.195-.06-.346-.184-.454-.123-.109-.296-.164-.518-.164-.215 0-.382.046-.501.138a.426.426 0 0 0-.179.358c0 .138.07.254.208.348.14.094.347.182.618.264.5.15.865.337 1.093.56.229.222.343.5.343.831 0 .37-.14.66-.42.87-.278.21-.654.314-1.127.314-.328 0-.627-.06-.896-.179a1.439 1.439 0 0 1-.619-.495 1.27 1.27 0 0 1-.21-.726h.881c0 .47.281.706.844.706.209 0 .372-.042.49-.126a.418.418 0 0 0 .175-.358z" fill="#2196F3"/></svg>