<svg width="41" height="45" fill="none" xmlns="http://www.w3.org/2000/svg"><path d="M6.346 43.209a.118.118 0 0 1 .08.034l.205.22c-.16.176-.357.318-.579.415-.26.105-.539.156-.82.149a1.985 1.985 0 0 1-.772-.14 1.67 1.67 0 0 1-.581-.392 1.776 1.776 0 0 1-.376-.607 2.226 2.226 0 0 1-.13-.78 2.075 2.075 0 0 1 .14-.78c.09-.226.226-.433.4-.607.175-.172.385-.306.617-.396.253-.095.523-.142.795-.14.252-.005.503.038.738.128.203.085.39.204.553.35l-.173.234a.174.174 0 0 1-.043.043.108.108 0 0 1-.07.017.155.155 0 0 1-.074-.025l-.093-.062-.129-.08a1.363 1.363 0 0 0-.406-.139 1.61 1.61 0 0 0-.306-.025 1.508 1.508 0 0 0-.571.105 1.288 1.288 0 0 0-.448.293 1.365 1.365 0 0 0-.29.468 1.731 1.731 0 0 0-.106.617c-.003.213.033.425.106.627.062.172.16.33.285.465.118.126.264.225.427.289.168.067.348.1.53.1.105 0 .21-.006.314-.02.17-.02.332-.078.476-.167.072-.046.14-.098.203-.155a.152.152 0 0 1 .098-.04zM12.287 42.109c.003.264-.044.526-.139.773-.084.225-.216.43-.387.6a1.753 1.753 0 0 1-.608.395 2.265 2.265 0 0 1-1.564 0 1.773 1.773 0 0 1-.604-.395 1.77 1.77 0 0 1-.391-.607 2.23 2.23 0 0 1 0-1.55c.087-.226.22-.433.39-.61.173-.165.379-.295.605-.38.503-.19 1.06-.19 1.564 0 .228.09.435.224.607.395.17.173.301.377.388.6a2.1 2.1 0 0 1 .14.779zm-.54 0a1.809 1.809 0 0 0-.098-.622 1.207 1.207 0 0 0-.71-.759 1.635 1.635 0 0 0-1.137 0 1.207 1.207 0 0 0-.434.294 1.27 1.27 0 0 0-.278.465 2.02 2.02 0 0 0 0 1.243 1.203 1.203 0 0 0 .712.756c.367.133.77.133 1.137 0 .166-.064.314-.163.435-.29.123-.136.217-.294.275-.465.07-.2.102-.411.098-.622zM16.34 42.76l.055.14c.02-.05.038-.095.059-.14.02-.046.042-.092.067-.136l1.314-2.31c.026-.04.049-.066.075-.073a.32.32 0 0 1 .108-.013h.388v3.759h-.46v-2.764-.117a1.116 1.116 0 0 1 0-.129l-1.322 2.343a.204.204 0 0 1-.078.086.213.213 0 0 1-.113.03h-.074a.21.21 0 0 1-.113-.03.201.201 0 0 1-.078-.086l-1.36-2.358v3.017h-.445v-3.75h.388a.32.32 0 0 1 .108.012c.032.015.057.04.072.072l1.343 2.313a.824.824 0 0 1 .067.134zM21.287 42.574v1.408h-.514v-3.754h1.147c.216-.004.432.024.64.082.167.046.321.126.453.234a.962.962 0 0 1 .257.369c.06.153.09.316.088.48a1.18 1.18 0 0 1-.096.48 1.026 1.026 0 0 1-.277.375 1.264 1.264 0 0 1-.456.249c-.2.062-.41.091-.62.087l-.622-.01zm0-.403h.622c.136.002.27-.017.399-.057a.84.84 0 0 0 .288-.162.66.66 0 0 0 .175-.248.79.79 0 0 0 .062-.316.697.697 0 0 0-.232-.563 1.022 1.022 0 0 0-.692-.201h-.622v1.547zM28.2 43.986h-.406a.178.178 0 0 1-.113-.034.23.23 0 0 1-.067-.087l-.35-.908h-1.756l-.363.908a.201.201 0 0 1-.064.084.178.178 0 0 1-.116.037h-.406l1.543-3.758h.535l1.564 3.758zm-2.546-1.395h1.451l-.612-1.53a2.69 2.69 0 0 1-.116-.353l-.06.197c-.017.06-.038.114-.056.159l-.607 1.527zM30.423 40.245c.031.017.058.04.078.068l2.25 2.833v-.132-2.786h.46v3.758h-.257a.228.228 0 0 1-.105-.022.285.285 0 0 1-.082-.07l-2.249-2.83c.003.043.003.086 0 .13v2.792h-.46v-3.758h.273c.032 0 .063.005.092.017zM37.003 42.492v1.493h-.515v-1.493l-1.422-2.264h.46c.04-.002.08.01.11.033a.32.32 0 0 1 .07.084l.89 1.46a1.594 1.594 0 0 1 .157.333l.067-.16c.025-.06.054-.117.088-.172l.877-1.47a.38.38 0 0 1 .067-.08.16.16 0 0 1 .11-.038h.466l-1.425 2.274zM16.086 33.92c.224.028.45.05.679.07 3.47-1.501 6.407-3.959 8.441-7.065a18.245 18.245 0 0 0 2.997-10.4l-3.825-3.698c.778 3.914.415 7.96-1.05 11.685-1.465 3.725-3.972 6.983-7.242 9.409z" fill="#AFB1B8"/><path d="M14.72 33.749l.103.02c3.494-2.417 6.158-5.793 7.648-9.69a20.116 20.116 0 0 0 .706-12.17L17.73 6.641a24.761 24.761 0 0 1 2.557 13.976c-.532 4.799-2.463 9.352-5.567 13.132zM33.196 20.87c-.926 4.038-3.173 7.68-6.41 10.386a20.196 20.196 0 0 1-3.045 2.115 18.106 18.106 0 0 0 7.08-3.871 17.336 17.336 0 0 0 4.584-6.497l-2.21-2.134z" fill="#AFB1B8"/><path d="M32.33 20.274l-3.146-3.042a18.955 18.955 0 0 1-2.953 9.817 19.824 19.824 0 0 1-7.699 7.006h.016c.705 0 1.41-.041 2.111-.122a19.34 19.34 0 0 0 7.611-5.41 18.472 18.472 0 0 0 4.06-8.249zM15.176 4.42L11.423.785C8.068 2.04 5.183 4.243 3.145 7.11A16.88 16.88 0 0 0 0 16.847c.013 3.843 1.35 7.573 3.801 10.598 2.451 3.025 5.875 5.174 9.731 6.105 3.442-4.055 5.457-9.066 5.753-14.305.295-5.239-1.144-10.432-4.11-14.825zM41 19.715c-.013-4.56-1.892-8.93-5.227-12.153-3.334-3.225-7.852-5.042-12.567-5.055a18.143 18.143 0 0 0-6.371 1.147l22.977 22.22A16.525 16.525 0 0 0 41 19.713z" fill="#AFB1B8"/></svg>