<svg aria-hidden="true" style="position: absolute; width: 0; height: 0; overflow: hidden;" version="1.1" xmlns="http://www.w3.org/2000/svg" xmlns:xlink="http://www.w3.org/1999/xlink">
<defs>
<symbol id="icon-antenna" viewBox="0 0 32 32">
<path fill="#212121" style="fill: var(--color1, #212121)" d="M30.773 22.098l-8.443-8.505 0.937-4.616c0.225 0.090 0.485 0.144 0.758 0.146h0.007c0.008 0 0.017 0 0.026 0 1.192 0 2.159-0.967 2.159-2.159s-0.967-2.159-2.159-2.159c-1.192 0-2.159 0.967-2.159 2.159 0 0.259 0.046 0.508 0.13 0.739l-0.005-0.015-4.96 0.606-8.091-8.133c-0.096-0.098-0.229-0.159-0.376-0.16h-0c-0.14 0.001-0.274 0.057-0.373 0.155l-1.512 1.504c-0.096 0.097-0.156 0.23-0.156 0.377s0.060 0.281 0.156 0.377v0l0.814 0.825c-1.143 2.062-1.816 4.522-1.816 7.139 0 4.106 1.656 7.824 4.336 10.525l-0.001-0.001c0.043 0.041 0.092 0.074 0.146 0.097-0.032 0.164-0.051 0.353-0.052 0.546v6.188h-6.4c-1.472 0.001-2.666 1.194-2.667 2.666v1.067c0 0.295 0.239 0.534 0.534 0.534h24.534c0.294 0 0.533-0.239 0.533-0.534v-1.067c-0.002-1.472-1.195-2.665-2.666-2.666h-6.4v-2.742c0.915 0.201 1.968 0.317 3.047 0.32h0.002c2.58-0.003 5.005-0.663 7.117-1.822l-0.077 0.039 0.818 0.823c0.099 0.101 0.235 0.159 0.376 0.16 0.14-0.001 0.274-0.057 0.373-0.155l1.512-1.504c0.096-0.097 0.156-0.23 0.156-0.377s-0.060-0.281-0.156-0.377v0zM23.28 6.233c0.193-0.192 0.459-0.31 0.752-0.31 0.589 0 1.067 0.478 1.067 1.066s-0.477 1.066-1.067 1.066c-0 0-0 0-0.001 0h-0.003c-0.587-0.003-1.061-0.479-1.061-1.066 0-0.295 0.12-0.563 0.314-0.756l0-0h-0.002zM22.024 9.737l-0.598 2.946-1.175-1.183 1.774-1.763zM21.419 8.835l-1.92 1.909-1.486-1.493 3.406-0.416zM24.004 28.8c0.884 0 1.6 0.716 1.6 1.6v0 0.534h-23.466v-0.534c0-0.884 0.716-1.6 1.6-1.6v0h20.267zM16.538 26.666v1.067h-5.334v-1.067h5.334zM11.204 25.6v-4.053c0-1.294 1.196-2.346 2.667-2.346s2.667 1.053 2.667 2.346v4.053h-5.334zM17.604 23.904v-2.357c0-1.882-1.675-3.413-3.733-3.413-0.017-0-0.038-0-0.058-0-1.353 0-2.54 0.707-3.213 1.771l-0.009 0.016c-2.36-2.482-3.812-5.846-3.812-9.55 0-2.314 0.567-4.496 1.569-6.414l-0.036 0.077 18.602 18.709c-1.823 0.947-3.979 1.502-6.266 1.502-1.079 0-2.128-0.124-3.136-0.357l0.093 0.018zM28.893 23.22l-21.057-21.181 0.754-0.752 7.935 7.98c0.004 0 0.006 0.007 0.009 0.010l13.115 13.191-0.757 0.752z"></path>
<path fill="#2196f3" style="fill: var(--color2, #2196f3)" d="M13.876 20.267h-0.005c-0.001 0-0.002 0-0.002 0-0.884 0-1.6 0.716-1.6 1.6s0.715 1.599 1.597 1.6h0.005c0.001 0 0.001 0 0.002 0 0.884 0 1.6-0.716 1.6-1.6s-0.715-1.599-1.598-1.6h-0zM14.249 22.245c-0.096 0.096-0.229 0.155-0.376 0.155-0.295 0-0.534-0.239-0.534-0.534s0.238-0.533 0.532-0.533h0c0.293 0.002 0.53 0.24 0.53 0.533 0 0.148-0.060 0.281-0.157 0.378v0h0.005z"></path>
</symbol>
<symbol id="icon-astronaut" viewBox="0 0 32 32">
<path fill="#2196f3" style="fill: var(--color2, #2196f3)" d="M31.974 4.524c-0.064-0.191-0.227-0.332-0.427-0.362l-0.003-0-1.911-0.278-0.855-1.731c-0.179-0.365-0.777-0.365-0.956 0l-0.855 1.731-1.911 0.278c-0.26 0.039-0.457 0.26-0.457 0.528 0 0.15 0.062 0.285 0.161 0.382l1.383 1.348-0.326 1.903c-0.034 0.2 0.048 0.402 0.212 0.522 0.166 0.12 0.383 0.135 0.562 0.040l1.709-0.899 1.709 0.899c0.072 0.038 0.157 0.061 0.247 0.061 0.295 0 0.534-0.239 0.534-0.534 0-0.031-0.003-0.062-0.008-0.092l0 0.003-0.326-1.903 1.383-1.348c0.099-0.097 0.161-0.233 0.161-0.382 0-0.059-0.009-0.115-0.027-0.168l0.001 0.004zM29.511 5.851c-0.126 0.122-0.183 0.299-0.153 0.472l0.191 1.114-1-0.526c-0.072-0.039-0.158-0.062-0.249-0.062s-0.177 0.023-0.252 0.063l0.003-0.001-1 0.526 0.191-1.114c0.005-0.027 0.008-0.059 0.008-0.091 0-0.149-0.061-0.285-0.16-0.381l-0-0-0.811-0.789 1.119-0.163c0.174-0.025 0.324-0.134 0.402-0.292l0.5-1.013 0.5 1.013c0.078 0.158 0.228 0.267 0.402 0.292l1.119 0.162-0.809 0.79zM26.134 20.522h-1.067v1.067h1.067v-1.067zM26.134 22.656h-1.067v1.066h1.067v-1.066zM27.2 21.589h-1.067v1.067h1.067v-1.067zM25.067 21.589h-1.067v1.067h1.067v-1.067zM22.4 26.389h-1.067v1.067h1.067v-1.067zM22.4 28.523h-1.067v1.067h1.067v-1.067zM23.467 27.456h-1.067v1.067h1.067v-1.067zM21.334 27.456h-1.067v1.067h1.067v-1.067zM16 24.256h-1.066v1.067h1.066v-1.067zM16 26.389h-1.066v1.067h1.066v-1.067zM17.067 25.322h-1.067v1.067h1.067v-1.067zM14.934 25.322h-1.067v1.067h1.067v-1.067zM5.867 6.122h-1.066v1.066h1.066v-1.066zM5.867 8.256h-1.066v1.066h1.066v-1.066zM6.933 7.189h-1.067v1.067h1.066v-1.067zM4.8 7.189h-1.067v1.067h1.067v-1.067z"></path>
<path fill="#212121" style="fill: var(--color1, #212121)" d="M24.715 14.16c-0.28-0.376-0.698-0.636-1.179-0.703l-0.009-0.001c-0.076-0.012-0.164-0.018-0.254-0.018-0.411 0-0.789 0.139-1.090 0.373l0.004-0.003-1.253 0.96-1.898 1.417-1.358-0.541c2.421-1.086 4.113-3.508 4.113-6.32 0-3.823-3.122-6.934-6.961-6.934s-6.961 3.11-6.961 6.934c0 1.386 0.415 2.674 1.12 3.759l-2.768-0.024c-0.009 0-0.016 0.005-0.023 0.005-0.057 0.003-0.11 0.014-0.159 0.033l0.004-0.001c-0.013 0.005-0.026 0.007-0.038 0.013-0.006 0.003-0.013 0.003-0.019 0.006l-3.233 1.596c-0 0-0.001 0-0.001 0.001l-1.893 0.91c-0.024 0.011-0.045 0.023-0.064 0.036l0.001-0.001c-0.482 0.324-0.795 0.867-0.795 1.483 0 0.297 0.073 0.577 0.201 0.823l-0.005-0.010c0.22 0.424 0.592 0.742 1.043 0.885l0.013 0.003c0.161 0.053 0.345 0.083 0.537 0.083 0.308 0 0.598-0.078 0.851-0.216l-0.009 0.005 1.388-0.738 2.264-1.169 1.357-0.008-5.442 5.415c0 0.001-0.001 0.001-0.001 0.001l-1.339 1.333c-0.303 0.299-0.491 0.714-0.491 1.173 0 0.002 0 0.003 0 0.005v-0c0.002 0.919 0.748 1.664 1.667 1.664 0.001 0 0.002 0 0.002 0h-0c0.428 0 0.854-0.162 1.18-0.485l1.314-1.309 1.741-1.3 0.901 0.897-3.102 3.088c-0.303 0.299-0.491 0.715-0.491 1.174 0 0.001 0 0.003 0 0.004v-0c0 0.445 0.174 0.864 0.49 1.179 0.302 0.3 0.717 0.485 1.176 0.485 0.001 0 0.002 0 0.003 0h-0c0.427 0 0.855-0.162 1.18-0.485l4.488-4.472c0.007-0.006 0.016-0.009 0.022-0.016l5.166-5.658 3.471 0.494c0.025 0.004 0.050 0.006 0.075 0.006 0.064 0 0.127-0.016 0.187-0.038 0.017-0.006 0.032-0.015 0.049-0.023 0.019-0.010 0.039-0.015 0.058-0.027l3.213-2.133c0.012-0.008 0.018-0.021 0.029-0.030 0.013-0.010 0.029-0.014 0.041-0.026l1.271-1.191c0.348-0.326 0.564-0.787 0.564-1.3 0-0.4-0.132-0.769-0.355-1.066l0.003 0.005zM2.13 17.77c-0.098 0.054-0.215 0.086-0.34 0.086-0.078 0-0.153-0.013-0.224-0.036l0.005 0.001c-0.294-0.093-0.504-0.364-0.504-0.683 0-0.236 0.114-0.445 0.29-0.575l0.002-0.001 1.314-0.632 0.316 0.924 0.133 0.389-0.992 0.527zM5.627 15.942l-1.548 0.8-0.255-0.746-0.184-0.537 2.027-1.001-0.040 1.484zM20.727 9.322c0 0.918-0.219 1.785-0.599 2.56l-4.181-1.899c-0.044-0.575-0.342-1.072-0.782-1.384l-0.006-0.004 1.464-4.86c2.377 0.756 4.104 2.974 4.104 5.588zM8.938 9.322c0-3.235 2.644-5.867 5.894-5.867 0.253 0 0.5 0.022 0.745 0.053l-1.432 4.753c-0.019 0-0.037-0.006-0.057-0.006-0 0-0.001 0-0.001 0-1.032 0-1.869 0.835-1.872 1.867v0c0.003 1.031 0.84 1.867 1.872 1.867 0 0 0 0 0.001 0h-0c0.695 0 1.295-0.383 1.618-0.944l3.863 1.755c-1.075 1.446-2.795 2.389-4.737 2.389-3.25 0-5.894-2.632-5.894-5.867zM14.895 10.122c0 0.441-0.362 0.8-0.806 0.8-0 0-0.001 0-0.001 0-0.443 0-0.802-0.358-0.804-0.8v-0c0-0.441 0.361-0.8 0.806-0.8s0.806 0.359 0.806 0.8zM2.464 25.146c-0.11 0.109-0.261 0.176-0.428 0.176s-0.317-0.067-0.427-0.175l0 0c-0.109-0.108-0.176-0.257-0.176-0.422s0.067-0.314 0.176-0.422l0-0 0.962-0.959 0.852 0.848-0.959 0.955zM5.678 28.88c-0.11 0.109-0.261 0.176-0.428 0.176s-0.317-0.067-0.427-0.175l0 0c-0.109-0.108-0.176-0.257-0.176-0.422s0.067-0.314 0.176-0.422l0-0 0.963-0.959 0.852 0.848-0.96 0.955zM9.16 25.411l-0.001 0.001-1.765 1.76-0.852-0.848 1.765-1.757c0.040-0.040 0.065-0.088 0.090-0.136 0.007-0.014 0.020-0.026 0.026-0.040 0.016-0.041 0.019-0.085 0.026-0.128 0.003-0.025 0.014-0.048 0.014-0.073 0-0.035-0.013-0.070-0.020-0.105-0.006-0.032-0.006-0.064-0.019-0.096-0.025-0.053-0.055-0.098-0.092-0.138l0 0c-0.010-0.012-0.014-0.027-0.025-0.038h-0.001s0-0.001-0.001-0.002l-1.607-1.6c-0.017-0.017-0.039-0.024-0.058-0.038-0.025-0.021-0.054-0.040-0.084-0.057l-0.003-0.001c-0.026-0.013-0.058-0.023-0.090-0.031l-0.003-0.001c-0.030-0.009-0.065-0.017-0.101-0.020l-0.002-0c-0.007-0-0.015-0.001-0.023-0.001-0.026 0-0.051 0.002-0.075 0.005l0.003-0c-0.036 0.005-0.069 0.009-0.104 0.021-0.036 0.013-0.067 0.028-0.096 0.046l0.002-0.001c-0.020 0.011-0.043 0.015-0.061 0.029l-1.774 1.324-0.901-0.897 2.399-2.386 4.36 4.289-0.928 0.919zM15.979 18.394c-0.016-0.002-0.030 0.004-0.046 0.003-0.008-0-0.017-0.001-0.027-0.001-0.031 0-0.062 0.003-0.092 0.008l0.003-0c-0.070 0.011-0.132 0.035-0.187 0.070l0.002-0.001c-0.031 0.019-0.058 0.039-0.083 0.062l0-0c-0.013 0.011-0.028 0.016-0.040 0.029l-4.698 5.146-4.328-4.256 2.833-2.818c0.096-0.097 0.156-0.23 0.156-0.377 0-0.295-0.239-0.534-0.534-0.534-0.001 0-0.001 0-0.002 0h0l-2.219 0.013 0.028-1.607 3.104 0.027c1.264 1.297 3.027 2.101 4.978 2.101 0.001 0 0.002 0 0.003 0h-0c0.438 0 0.864-0.046 1.28-0.122 0.040 0.032 0.080 0.064 0.129 0.085l2.41 0.96 0.152 0.759 0.178 0.885-3.003-0.427zM20.020 18.572l-0.313-1.558 1.446-1.080 0.946 1.257-2.080 1.381zM23.773 15.741l-0.837 0.785-0.931-1.237 0.831-0.637c0.155-0.119 0.351-0.168 0.543-0.143 0.193 0.027 0.364 0.128 0.48 0.284 0.088 0.117 0.141 0.265 0.141 0.426 0 0.206-0.087 0.391-0.226 0.521l-0 0z"></path>
<path fill="#212121" style="fill: var(--color1, #212121)" d="M13.602 18.544l-2.143-2.134c-0.096-0.096-0.229-0.155-0.376-0.155s-0.28 0.059-0.376 0.155l-2.143 2.133c-0.097 0.097-0.156 0.23-0.156 0.378s0.060 0.281 0.156 0.378l-0-0 2.142 2.134c0.096 0.096 0.229 0.156 0.376 0.156s0.28-0.059 0.376-0.156v0l2.143-2.134c0.097-0.097 0.157-0.23 0.157-0.378s-0.060-0.281-0.157-0.378l-0-0zM11.083 20.303l-1.387-1.381 1.386-1.381 1.387 1.381-1.387 1.381zM17.164 5.071l-0.258 1.036c0.071 0.018 1.738 0.452 1.738 2.149h1.067c0-2.017-1.666-2.965-2.547-3.184zM19.711 9.322h-1.067v1.066h1.067v-1.066z"></path>
</symbol>
<symbol id="icon-clock" viewBox="0 0 32 32">
<path fill="#212121" style="fill: var(--color1, #212121)" d="M31.296 15.301c-0.001-8.452-6.855-15.303-15.308-15.301s-15.303 6.855-15.301 15.308c0.002 6.788 4.422 12.543 10.54 14.545l0.108 0.031c0.061 0.019 0.123 0.029 0.187 0.029 0.12 0 0.238-0.032 0.342-0.094 0.135-0.080 0.236-0.207 0.283-0.357l3.865-12.25c1.054-0.004 1.906-0.859 1.906-1.913 0-1.056-0.856-1.913-1.913-1.913-0.303 0-0.59 0.071-0.845 0.196l0.011-0.005-5.106-5.107c-0.114-0.11-0.271-0.179-0.443-0.179-0.352 0-0.638 0.286-0.638 0.638 0 0.172 0.068 0.328 0.179 0.443l-0-0 5.103 5.109c-0.121 0.241-0.191 0.525-0.191 0.825 0 0.602 0.283 1.137 0.724 1.481l0.004 0.003-3.683 11.673c-7.278-2.681-11.004-10.754-8.324-18.032s10.754-11.004 18.032-8.323c7.278 2.681 11.004 10.754 8.323 18.032-1.345 3.581-4.003 6.406-7.374 7.938l-0.088 0.036-0.398-1.874c-0.063-0.291-0.318-0.506-0.624-0.506-0.163 0-0.313 0.061-0.425 0.163l0.001-0.001-3.837 3.426c-0.132 0.117-0.214 0.287-0.214 0.477 0 0.283 0.185 0.524 0.441 0.606l0.005 0.001 4.899 1.563c0.058 0.020 0.126 0.031 0.196 0.031 0.352 0 0.637-0.285 0.637-0.637 0-0.047-0.005-0.093-0.015-0.138l0.001 0.004-0.391-1.839c5.528-2.374 9.329-7.772 9.329-14.057 0-0.011 0-0.023-0-0.034v0.002zM15.992 14.664c0.352 0 0.638 0.286 0.638 0.638s-0.285 0.638-0.638 0.638v0c-0.352 0-0.638-0.286-0.638-0.638s0.286-0.638 0.638-0.638v0zM18.092 29.528l2.184-1.948 0.603 2.84-2.787-0.892z"></path>
<path fill="#2196f3" style="fill: var(--color2, #2196f3)" d="M15.354 3.185v1.275c0 0.352 0.286 0.638 0.638 0.638s0.638-0.285 0.638-0.638v0-1.275c0-0.352-0.285-0.638-0.638-0.638s-0.638 0.285-0.638 0.638v0zM3.876 14.664c-0.352 0-0.638 0.286-0.638 0.638s0.285 0.638 0.638 0.638h1.275c0.352 0 0.638-0.286 0.638-0.638s-0.285-0.638-0.638-0.638h-1.275zM28.108 15.939c0.352 0 0.638-0.286 0.638-0.638s-0.285-0.638-0.638-0.638h-1.275c-0.352 0-0.638 0.286-0.638 0.638s0.285 0.638 0.638 0.638h1.275z"></path>
</symbol>
<symbol id="icon-diagram" viewBox="0 0 32 32">
<path fill="#2196f3" style="fill: var(--color2, #2196f3)" d="M14.926 14.965h1.066v4.798h-1.066v-4.798zM19.19 17.097h1.066v2.665h-1.066v-2.665zM10.661 18.696h1.066v1.066h-1.066v-1.066zM7.463 18.163h1.066v1.599h-1.066v-1.599z"></path>
<path fill="#212121" style="fill: var(--color1, #212121)" d="M1.599 28.291h25.586c0 0 0 0 0 0 0.883 0 1.599-0.716 1.599-1.599v0-2.132c0-0.883-0.716-1.599-1.599-1.599v0h-0.533v-13.294l3.028-2.868c0.207 0.104 0.452 0.166 0.711 0.166 0.888 0 1.608-0.72 1.608-1.608s-0.72-1.608-1.608-1.608c-0.888 0-1.608 0.72-1.608 1.608 0 0.247 0.056 0.481 0.155 0.69l-0.004-0.010-2.281 2.162v-1.23c0-0.883-0.716-1.599-1.599-1.599v0h-21.323c-0.883 0-1.599 0.716-1.599 1.599v0 15.992h-0.533c-0.883 0-1.599 0.716-1.599 1.599v0 2.132c0 0.883 0.716 1.599 1.599 1.599v0zM30.384 4.837c0.294 0 0.533 0.239 0.533 0.533s-0.239 0.533-0.533 0.533v0c-0.294 0-0.533-0.239-0.533-0.533s0.239-0.533 0.533-0.533v0zM3.198 6.969c0-0.294 0.239-0.533 0.533-0.533h21.323c0.294 0 0.533 0.239 0.533 0.533v2.239l-1.066 1.013v-2.185c0-0.295-0.239-0.534-0.534-0.534h-19.189c-0.294 0-0.534 0.239-0.534 0.533v13.327c0 0.294 0.239 0.533 0.534 0.533h19.189c0.295 0 0.534-0.239 0.534-0.533v-9.675l1.066-1.010v12.283h-22.389v-15.991zM7.996 13.899c-0.001 0-0.003 0-0.005 0-0.883 0-1.599 0.716-1.599 1.599s0.716 1.599 1.599 1.599c0.432 0 0.824-0.172 1.112-0.45l-0 0 1.853 0.93c0.215 0.107 0.476 0.057 0.636-0.122l3.939-4.432 3.872 2.902c0.208 0.155 0.498 0.139 0.686-0.039l3.365-3.188v8.131h-18.123v-12.261h18.123v2.661l-3.771 3.572-3.904-2.927c-0.088-0.067-0.2-0.107-0.32-0.107-0.158 0-0.3 0.069-0.398 0.178l-0 0.001-3.993 4.493-1.493-0.746c0.011-0.064 0.017-0.128 0.020-0.193 0-0.883-0.716-1.599-1.599-1.599v0zM8.529 15.498c0 0.294-0.239 0.533-0.533 0.533s-0.533-0.239-0.533-0.533v0c0-0.294 0.239-0.533 0.533-0.533s0.533 0.239 0.533 0.533v0zM11.727 24.026h5.33v0.533c0 0.294-0.238 0.533-0.533 0.533h-4.265c-0.294 0-0.533-0.239-0.533-0.533v0-0.533zM1.067 24.56c0-0.294 0.238-0.533 0.533-0.533h9.062v0.533c0 0.883 0.716 1.599 1.599 1.599v0h4.265c0.883 0 1.599-0.716 1.599-1.599v0-0.533h9.062c0.294 0 0.533 0.239 0.533 0.533v2.132c0 0.294-0.239 0.533-0.533 0.533h-25.586c-0 0-0 0-0 0-0.294 0-0.533-0.239-0.533-0.533 0 0 0 0 0 0v0-2.132z"></path>
</symbol>
<symbol id="icon-envelope" viewBox="0 0 43 32">
<path d="M38.667 0h-34.667c-2.205 0-4 1.795-4 4v24c0 2.205 1.795 4 4 4h34.667c2.205 0 4-1.795 4-4v-24c0-2.205-1.795-4-4-4zM38.667 2.667c0.181 0 0.355 0.037 0.512 0.104l-17.845 15.467-17.845-15.467c0.151-0.065 0.327-0.104 0.512-0.104h34.667zM38.667 29.333h-34.667c-0.736 0-1.333-0.597-1.333-1.333v0-22.413l17.792 15.421c0.233 0.203 0.539 0.327 0.875 0.327s0.642-0.124 0.876-0.328l-0.002 0.001 17.792-15.421v22.413c0 0.736-0.597 1.333-1.333 1.333v0z"></path>
</symbol>
<symbol id="icon-facebook" viewBox="0 0 32 32">
<path d="M21.329 5.313h2.921v-5.088c-0.504-0.069-2.237-0.225-4.256-0.225-4.212 0-7.097 2.649-7.097 7.519v4.481h-4.648v5.688h4.648v14.312h5.699v-14.311h4.46l0.708-5.688h-5.169v-3.919c0.001-1.644 0.444-2.769 2.735-2.769z"></path>
</symbol>
<symbol id="icon-instagram" viewBox="0 0 32 32">
<path d="M31.969 9.408c-0.075-1.7-0.35-2.869-0.744-3.882-0.406-1.075-1.031-2.038-1.85-2.838-0.8-0.813-1.769-1.444-2.832-1.844-1.019-0.394-2.182-0.669-3.882-0.744-1.713-0.081-2.257-0.1-6.601-0.1s-4.888 0.019-6.595 0.094c-1.7 0.075-2.869 0.35-3.882 0.744-1.075 0.406-2.038 1.031-2.838 1.85-0.813 0.8-1.444 1.769-1.844 2.832-0.394 1.019-0.669 2.182-0.744 3.882-0.081 1.713-0.1 2.257-0.1 6.601s0.019 4.888 0.094 6.595c0.075 1.7 0.35 2.869 0.744 3.882 0.406 1.075 1.038 2.038 1.85 2.838 0.8 0.813 1.769 1.444 2.832 1.844 1.019 0.394 2.182 0.669 3.882 0.744 1.706 0.075 2.25 0.094 6.595 0.094s4.888-0.019 6.595-0.094c1.7-0.075 2.869-0.35 3.882-0.744 2.151-0.832 3.851-2.532 4.682-4.682 0.394-1.019 0.669-2.182 0.744-3.882 0.075-1.707 0.094-2.251 0.094-6.595s-0.006-4.888-0.081-6.595zM29.087 22.473c-0.069 1.563-0.331 2.407-0.55 2.969-0.538 1.394-1.644 2.5-3.038 3.038-0.563 0.219-1.413 0.481-2.969 0.55-1.688 0.075-2.194 0.094-6.464 0.094s-4.782-0.019-6.464-0.094c-1.563-0.069-2.407-0.331-2.969-0.55-0.694-0.256-1.325-0.663-1.838-1.194-0.531-0.519-0.938-1.144-1.194-1.838-0.219-0.563-0.481-1.413-0.55-2.969-0.075-1.688-0.094-2.194-0.094-6.464s0.019-4.782 0.094-6.464c0.069-1.563 0.331-2.407 0.55-2.969 0.256-0.694 0.663-1.325 1.2-1.838 0.519-0.531 1.144-0.938 1.838-1.194 0.563-0.219 1.413-0.481 2.969-0.55 1.688-0.075 2.194-0.094 6.464-0.094 4.276 0 4.782 0.019 6.464 0.094 1.563 0.069 2.407 0.331 2.969 0.55 0.694 0.256 1.325 0.662 1.838 1.194 0.531 0.519 0.938 1.144 1.194 1.838 0.219 0.563 0.481 1.413 0.55 2.969 0.075 1.688 0.094 2.194 0.094 6.464s-0.019 4.77-0.094 6.458z"></path>
<path d="M16.059 7.783c-4.538 0-8.22 3.682-8.22 8.22s3.682 8.22 8.22 8.22c4.538 0 8.22-3.682 8.22-8.22s-3.682-8.22-8.22-8.22zM16.059 21.335c-2.944 0-5.332-2.388-5.332-5.332s2.388-5.332 5.332-5.332c2.944 0 5.332 2.388 5.332 5.332s-2.388 5.332-5.332 5.332z"></path>
<path d="M26.524 7.458c0 1.060-0.859 1.919-1.919 1.919s-1.919-0.859-1.919-1.919c0-1.060 0.859-1.919 1.919-1.919s1.919 0.859 1.919 1.919z"></path>
</symbol>
<symbol id="icon-linkedin" viewBox="0 0 32 32">
<path d="M31.992 32v-0.001h0.008v-11.736c0-5.741-1.236-10.164-7.948-10.164-3.227 0-5.392 1.771-6.276 3.449h-0.093v-2.913h-6.364v21.364h6.627v-10.579c0-2.785 0.528-5.479 3.977-5.479 3.399 0 3.449 3.179 3.449 5.657v10.401h6.62z"></path>
<path d="M0.528 10.636h6.635v21.364h-6.635v-21.364z"></path>
<path d="M3.843 0c-2.121 0-3.843 1.721-3.843 3.843s1.721 3.879 3.843 3.879c2.121 0 3.843-1.757 3.843-3.879-0.001-2.121-1.723-3.843-3.843-3.843v0z"></path>
</symbol>
<symbol id="icon-logo1" viewBox="0 0 28 32">
<path d="M3.765 0.455l4.585 4.406h12.79v12.291l4.585 4.406v-21.102h-21.961z"></path>
<path d="M0 4.675v20.5h21.333v-8.149l-12.848-12.346-8.485-0.006zM17.269 22.177h-13.894v-13.788h0.982v12.854h12.912v0.934zM6.143 28.948l0.513-1.057h0.429l-0.749 1.409v0.821h-0.389v-0.821l-0.749-1.409h0.43l0.513 1.057zM8.346 29.602h-0.863l-0.181 0.52h-0.403l0.842-2.231h0.348l0.844 2.231h-0.405l-0.182-0.52zM7.591 29.289h0.646l-0.323-0.925-0.323 0.925zM9.874 29.519c0-0.103 0.028-0.198 0.084-0.283 0.056-0.087 0.167-0.189 0.333-0.308-0.068-0.081-0.129-0.173-0.178-0.27l-0.004-0.008c-0.031-0.065-0.049-0.141-0.051-0.222v-0c0-0.175 0.053-0.312 0.159-0.414s0.249-0.153 0.429-0.153c0.163 0 0.295 0.048 0.398 0.144 0.104 0.095 0.157 0.213 0.157 0.354 0 0.001 0 0.002 0 0.003 0 0.094-0.026 0.182-0.072 0.257l0.001-0.002c-0.062 0.093-0.139 0.17-0.229 0.231l-0.003 0.002-0.152 0.11 0.431 0.508c0.062-0.122 0.093-0.259 0.093-0.408h0.323c0 0.274-0.064 0.499-0.193 0.675l0.328 0.388h-0.432l-0.126-0.149c-0.151 0.112-0.341 0.18-0.547 0.18-0.008 0-0.016-0-0.024-0l0.001 0c-0.22 0-0.397-0.058-0.53-0.175-0.122-0.108-0.198-0.264-0.198-0.439 0-0.007 0-0.014 0-0.020l-0 0.001zM10.612 29.855c0.126 0 0.243-0.042 0.352-0.125l-0.487-0.575-0.048 0.034c-0.122 0.093-0.184 0.199-0.184 0.319 0 0.103 0.033 0.187 0.1 0.251 0.065 0.060 0.152 0.097 0.248 0.097 0.006 0 0.013-0 0.019-0l-0.001 0zM10.406 28.418c0 0.086 0.053 0.193 0.158 0.323l0.169-0.116 0.048-0.038c0.058-0.051 0.095-0.125 0.095-0.208 0-0.003-0-0.006-0-0.009v0c0-0.001 0-0.001 0-0.002 0-0.058-0.025-0.11-0.066-0.146l-0-0c-0.041-0.039-0.097-0.063-0.159-0.063-0.003 0-0.006 0-0.008 0h0c-0.003-0-0.006-0-0.009-0-0.065 0-0.124 0.029-0.164 0.074l-0 0c-0.040 0.047-0.065 0.109-0.065 0.176 0 0.003 0 0.006 0 0.010v-0zM14.458 29.395c-0.023 0.238-0.11 0.424-0.264 0.557s-0.357 0.2-0.611 0.2c-0.178 0-0.334-0.042-0.471-0.125-0.136-0.088-0.243-0.21-0.31-0.355l-0.002-0.005c-0.073-0.157-0.115-0.34-0.115-0.533 0-0.003 0-0.005 0-0.008v0-0.208c0-0.21 0.038-0.395 0.112-0.556 0.075-0.161 0.182-0.284 0.32-0.371 0.141-0.087 0.301-0.131 0.484-0.131 0.246 0 0.444 0.067 0.594 0.201s0.238 0.323 0.262 0.567h-0.386c-0.019-0.161-0.065-0.276-0.141-0.346-0.075-0.072-0.184-0.107-0.329-0.107-0.168 0-0.298 0.061-0.389 0.185-0.090 0.123-0.136 0.303-0.138 0.541v0.198c0 0.241 0.043 0.425 0.129 0.552s0.213 0.19 0.38 0.19c0.152 0 0.267-0.035 0.343-0.103s0.126-0.182 0.146-0.341h0.386zM16.586 29.064c0 0.219-0.038 0.411-0.113 0.576s-0.184 0.291-0.325 0.38c-0.14 0.088-0.301 0.132-0.484 0.132-0.181 0-0.342-0.044-0.484-0.132-0.143-0.092-0.255-0.221-0.326-0.373l-0.002-0.005c-0.073-0.16-0.116-0.347-0.116-0.544 0-0.007 0-0.015 0-0.022v0.001-0.125c0-0.218 0.038-0.41 0.115-0.576s0.186-0.294 0.326-0.381c0.141-0.089 0.302-0.134 0.484-0.134s0.343 0.044 0.483 0.132c0.141 0.087 0.25 0.213 0.326 0.376s0.115 0.355 0.116 0.572v0.124zM16.198 28.948c0-0.247-0.047-0.437-0.141-0.568-0.083-0.12-0.221-0.198-0.377-0.198-0.007 0-0.014 0-0.022 0l0.001-0c-0.005-0-0.011-0-0.016-0-0.156 0-0.293 0.078-0.376 0.196l-0.001 0.002c-0.094 0.131-0.142 0.316-0.144 0.556v0.129c0 0.245 0.048 0.435 0.143 0.568s0.228 0.201 0.398 0.201c0.172 0 0.304-0.065 0.395-0.196 0.093-0.131 0.139-0.321 0.139-0.573v-0.116z"></path>
</symbol>
<symbol id="icon-logo2" viewBox="0 0 25 32">
<path d="M10.447 1.806h0.084c0.156 0 0.324 0.015 0.49 0.030 0.734 0.052 1.463 0.162 2.18 0.329v-1.762c-0.652-0.172-1.42-0.299-2.207-0.357l-0.042-0.002c-0.254-0.020-0.571-0.035-0.889-0.043l-0.021-0h-0.263c-1.523 0.006-3.040 0.201-4.515 0.582-1.68 0.418-3.292 1.075-4.79 1.948v17.475c1.312-0.729 2.832-1.339 4.431-1.75l0.135-0.029c1.123-0.3 2.434-0.51 3.78-0.586l0.052-0.002h0.052c0.216-0.011 0.433-0.017 0.655-0.018v-1.791c-1.78 0.024-3.493 0.264-5.129 0.695l0.147-0.033c-0.603 0.157-1.185 0.326-1.731 0.513l-0.623 0.212v-13.626l0.266-0.128c1.89-0.918 4.096-1.513 6.424-1.649l0.047-0.002c0.008-0.001 0.018-0.001 0.028-0.001s0.020 0 0.029 0.001l-0.001-0c0.248-0.012 0.497-0.018 0.742-0.018h0.28c0.129 0.003 0.258 0.006 0.388 0.014z"></path>
<path d="M14.838 3.651c-0.005 0-0.010 0-0.016 0-0.915 0-1.811-0.077-2.684-0.225l0.094 0.013c-0.277-0.047-0.55-0.103-0.814-0.164v17.275c0.995 0.257 2.137 0.404 3.313 0.404 0.039 0 0.079-0 0.118-0l-0.006 0c1.607-0.007 3.162-0.218 4.643-0.61l-0.128 0.029c1.817-0.461 3.412-1.129 4.877-1.995l-0.085 0.047v-17.163c-1.311 0.728-2.83 1.338-4.429 1.751l-0.136 0.030c-1.551 0.399-3.145 0.603-4.746 0.609zM21.745 3.95l0.623-0.209v13.63l-0.266 0.129c-0.903 0.442-1.963 0.834-3.065 1.118l-0.119 0.026c-1.331 0.345-2.699 0.521-4.074 0.527-0.411 0-0.818-0.017-1.214-0.052l-0.426-0.038v-14.017l0.497 0.033c0.361 0.023 0.735 0.034 1.141 0.034 1.841-0.007 3.622-0.248 5.32-0.696l-0.147 0.033c0.581-0.154 1.159-0.326 1.731-0.518zM1.684 25.977c-0.167-0.173-0.401-0.281-0.661-0.281-0.011 0-0.022 0-0.033 0.001l0.002-0c-0.004-0-0.009-0-0.014-0-0.139 0-0.272 0.028-0.393 0.078l0.007-0.003c-0.237 0.095-0.42 0.28-0.51 0.512l-0.002 0.006c-0.049 0.123-0.074 0.254-0.072 0.386v2.335c-0.006 0.164 0.026 0.328 0.092 0.479 0.055 0.12 0.135 0.226 0.234 0.313 0.093 0.078 0.203 0.135 0.32 0.166 0.114 0.031 0.231 0.048 0.349 0.048 0.13 0.001 0.258-0.026 0.377-0.081 0.351-0.155 0.591-0.5 0.591-0.901 0-0 0-0 0-0v0-0.261h-0.61v0.208c0 0.004 0 0.008 0 0.012 0 0.070-0.013 0.138-0.038 0.199l0.001-0.004c-0.021 0.052-0.051 0.095-0.089 0.132l-0 0c-0.070 0.054-0.159 0.088-0.255 0.089h-0c-0.011 0.001-0.023 0.002-0.035 0.002-0.103 0-0.194-0.050-0.25-0.127l-0.001-0.001c-0.051-0.082-0.082-0.182-0.082-0.289 0-0.008 0-0.016 0.001-0.024l-0 0.001v-2.177c-0.004-0.121 0.022-0.24 0.075-0.349 0.056-0.087 0.153-0.143 0.262-0.143 0.013 0 0.025 0.001 0.038 0.002l-0.001-0c0.004-0 0.008-0 0.012-0 0.107 0 0.201 0.052 0.26 0.131l0.001 0.001c0.063 0.082 0.102 0.187 0.102 0.301 0 0.004-0 0.009-0 0.013v-0.001 0.202h0.604v-0.238c0-0.003 0-0.007 0-0.011 0-0.143-0.027-0.28-0.077-0.405l0.003 0.007c-0.048-0.128-0.117-0.237-0.205-0.329l0 0zM5.31 25.951c-0.186-0.158-0.429-0.255-0.694-0.257h-0c-0.124 0.001-0.247 0.023-0.364 0.066-0.252 0.090-0.45 0.276-0.556 0.511l-0.002 0.006c-0.062 0.142-0.092 0.297-0.089 0.452v2.239c-0.004 0.158 0.026 0.314 0.089 0.458 0.055 0.121 0.136 0.228 0.237 0.314 0.093 0.086 0.203 0.153 0.322 0.197 0.108 0.041 0.233 0.065 0.363 0.065 0.267 0 0.511-0.099 0.696-0.262l-0.001 0.001c0.098-0.088 0.176-0.194 0.231-0.314 0.063-0.144 0.093-0.301 0.089-0.458v-2.239c0-0.006 0-0.014 0-0.021 0-0.156-0.033-0.304-0.092-0.438l0.003 0.007c-0.057-0.128-0.135-0.237-0.23-0.327l-0-0zM5.025 28.969c0.001 0.010 0.001 0.022 0.001 0.034 0 0.114-0.047 0.217-0.123 0.29l-0 0c-0.077 0.065-0.177 0.104-0.287 0.104s-0.21-0.039-0.288-0.105l0.001 0.001c-0.076-0.073-0.123-0.175-0.123-0.289 0-0.013 0.001-0.025 0.002-0.037l-0 0.002v-2.239c-0.001-0.010-0.001-0.022-0.001-0.034 0-0.113 0.047-0.216 0.123-0.289l0-0c0.077-0.065 0.178-0.104 0.287-0.104s0.21 0.039 0.288 0.105l-0.001-0.001c0.076 0.073 0.123 0.176 0.123 0.289 0 0.012-0.001 0.024-0.002 0.036l0-0.002v2.24zM10.072 29.969v-4.24h-0.586l-0.77 2.244h-0.011l-0.777-2.244h-0.581v4.239h0.606v-2.578h0.011l0.593 1.823h0.302l0.598-1.823h0.011v2.578h0.605zM13.513 26.027c-0.093-0.105-0.211-0.185-0.342-0.232-0.124-0.042-0.267-0.066-0.416-0.066-0.008 0-0.016 0-0.024 0l0.001-0h-0.9v4.24h0.604v-1.656h0.311c0.188 0.009 0.375-0.031 0.545-0.116 0.139-0.078 0.251-0.188 0.329-0.32l0.002-0.004c0.070-0.113 0.117-0.238 0.138-0.369 0.024-0.159 0.034-0.32 0.033-0.482 0.006-0.203-0.014-0.407-0.059-0.606-0.043-0.153-0.12-0.284-0.223-0.39l0 0zM13.201 27.319c-0.003 0.081-0.023 0.157-0.057 0.224l0.001-0.003c-0.035 0.065-0.089 0.116-0.154 0.147l-0.002 0.001c-0.075 0.034-0.162 0.054-0.254 0.054-0.011 0-0.022-0-0.033-0.001l0.002 0h-0.275v-1.441h0.311c0.009-0 0.019-0.001 0.029-0.001 0.088 0 0.172 0.020 0.247 0.055l-0.004-0.002c0.062 0.036 0.111 0.090 0.141 0.155l0.001 0.002c0.033 0.074 0.051 0.154 0.053 0.236v0.282c0 0.098 0.006 0.201 0 0.291h-0.006zM16.374 25.729h-0.495l-0.934 4.24h0.604l0.177-0.911h0.823l0.178 0.911h0.604l-0.958-4.24zM15.817 28.481l0.297-1.537h0.011l0.295 1.537h-0.604zM20.277 28.283h-0.011l-0.913-2.554h-0.58v4.24h0.604v-2.55h0.012l0.923 2.549h0.569v-4.239h-0.604v2.554zM23.968 25.729l-0.486 1.686h-0.012l-0.486-1.686h-0.639l0.83 2.448v1.791h0.604v-1.791l0.83-2.447h-0.64zM0 31.166h0.291v0.817h0.198v-0.817h0.289v-0.168h-0.778v0.168zM2.447 30.999l-0.382 0.984h0.21l0.081-0.224h0.392l0.084 0.224h0.215l-0.391-0.985h-0.21zM2.417 31.593l0.134-0.365 0.134 0.365h-0.268zM4.866 31.62h0.228v0.127c-0.063 0.051-0.145 0.082-0.234 0.083h-0c-0.004 0-0.009 0-0.014 0-0.079 0-0.149-0.037-0.195-0.094l-0-0c-0.046-0.065-0.073-0.147-0.073-0.234 0-0.008 0-0.016 0.001-0.023l-0 0.001c0-0.219 0.095-0.329 0.283-0.329 0.006-0.001 0.014-0.001 0.021-0.001 0.097 0 0.178 0.067 0.201 0.157l0 0.001 0.194-0.038c-0.042-0.192-0.18-0.289-0.417-0.289-0.004-0-0.008-0-0.013-0-0.127 0-0.244 0.048-0.331 0.127l0-0c-0.088 0.087-0.143 0.208-0.143 0.342 0 0.013 0 0.026 0.002 0.038l-0-0.002c-0 0.007-0 0.015-0 0.023 0 0.132 0.048 0.254 0.127 0.347l-0.001-0.001c0.087 0.090 0.209 0.146 0.343 0.146 0.011 0 0.021-0 0.032-0.001l-0.001 0c0.005 0 0.010 0 0.016 0 0.155 0 0.296-0.060 0.402-0.157l-0 0v-0.388h-0.426v0.166zM7.337 30.999h-0.198v0.984h0.689v-0.167h-0.49v-0.817zM9.426 30.999h-0.199v0.984h0.199v-0.985zM11.468 31.655l-0.403-0.657h-0.193v0.984h0.185v-0.643l0.396 0.643h0.198v-0.985h-0.182v0.658zM13.315 31.55h0.49v-0.168h-0.49v-0.215h0.527v-0.168h-0.727v0.985h0.747v-0.167h-0.548v-0.266zM17.792 31.386h-0.388v-0.388h-0.198v0.984h0.198v-0.431h0.388v0.431h0.198v-0.985h-0.197v0.388zM19.649 31.55h0.492v-0.168h-0.492v-0.215h0.529v-0.168h-0.726v0.985h0.746v-0.167h-0.548v-0.266zM22.168 31.55c0.172-0.027 0.258-0.118 0.258-0.274 0.001-0.008 0.002-0.018 0.002-0.028 0-0.078-0.038-0.148-0.097-0.191l-0.001-0c-0.073-0.037-0.159-0.059-0.25-0.059-0.014 0-0.027 0-0.040 0.001l0.002-0h-0.417v0.985h0.197v-0.412h0.039c0.005-0 0.010-0 0.016-0 0.039 0 0.076 0.008 0.109 0.023l-0.002-0.001c0.029 0.018 0.053 0.042 0.070 0.072l0.215 0.313h0.236l-0.119-0.192c-0.054-0.096-0.128-0.175-0.216-0.235l-0.002-0.002zM21.969 31.413h-0.146v-0.247h0.156c0.013-0.001 0.027-0.002 0.042-0.002 0.057 0 0.111 0.009 0.162 0.026l-0.004-0.001c0.027 0.024 0.044 0.058 0.044 0.096 0 0.022-0.006 0.043-0.016 0.062l0-0.001c-0.009 0.017-0.022 0.032-0.037 0.043l-0 0c-0.049 0.015-0.105 0.024-0.162 0.024-0.013 0-0.027-0-0.040-0.001l0.002 0zM24.068 31.55h0.49v-0.168h-0.49v-0.215h0.529v-0.168h-0.728v0.985h0.747v-0.167h-0.548v-0.266z"></path>
</symbol>
<symbol id="icon-logo3" viewBox="0 0 29 32">
<path d="M4.513 30.726c0.022 0.001 0.042 0.010 0.057 0.024v0l0.146 0.156c-0.114 0.125-0.254 0.226-0.412 0.295-0.185 0.075-0.383 0.111-0.583 0.106-0.008 0-0.018 0-0.028 0-0.188 0-0.367-0.037-0.531-0.103l0.009 0.003c-0.162-0.066-0.299-0.16-0.413-0.278l-0-0c-0.114-0.12-0.205-0.264-0.264-0.423l-0.003-0.009c-0.059-0.159-0.093-0.342-0.093-0.533 0-0.007 0-0.015 0-0.022v0.001c-0-0.006-0-0.014-0-0.021 0-0.192 0.037-0.375 0.103-0.543l-0.003 0.010c0.064-0.161 0.161-0.308 0.284-0.432 0.124-0.122 0.274-0.218 0.439-0.282 0.18-0.068 0.372-0.101 0.565-0.1 0.179-0.004 0.358 0.027 0.525 0.091 0.144 0.060 0.277 0.145 0.393 0.249l-0.123 0.166c-0.008 0.012-0.019 0.022-0.030 0.030l-0 0c-0.012 0.008-0.026 0.012-0.042 0.012-0.003 0-0.005-0-0.008-0l0 0c-0.020-0.001-0.038-0.008-0.053-0.018l0 0-0.066-0.044-0.092-0.057c-0.083-0.045-0.18-0.080-0.283-0.098l-0.006-0.001c-0.061-0.011-0.13-0.018-0.202-0.018-0.006 0-0.011 0-0.017 0h0.001c-0.004-0-0.008-0-0.013-0-0.142 0-0.277 0.027-0.401 0.077l0.007-0.003c-0.124 0.049-0.23 0.12-0.319 0.208l-0 0c-0.088 0.093-0.158 0.204-0.204 0.326l-0.002 0.007c-0.048 0.126-0.075 0.272-0.075 0.424 0 0.005 0 0.010 0 0.015v-0.001c-0.002 0.151 0.023 0.302 0.075 0.446 0.044 0.122 0.114 0.235 0.203 0.331 0.084 0.090 0.188 0.16 0.304 0.206 0.119 0.048 0.247 0.071 0.377 0.071 0.075 0 0.149-0.004 0.223-0.014 0.121-0.014 0.236-0.055 0.338-0.119 0.051-0.033 0.1-0.070 0.144-0.11 0.018-0.017 0.043-0.028 0.069-0.028h0zM8.737 29.944c0.002 0.188-0.031 0.374-0.099 0.55-0.060 0.16-0.154 0.306-0.275 0.427-0.12 0.12-0.264 0.215-0.424 0.278l-0.008 0.003c-0.165 0.063-0.356 0.099-0.556 0.099s-0.391-0.036-0.567-0.103l0.011 0.004c-0.167-0.067-0.31-0.162-0.43-0.281l0 0c-0.118-0.12-0.212-0.264-0.275-0.423l-0.003-0.009c-0.063-0.164-0.099-0.353-0.099-0.551s0.036-0.387 0.102-0.562l-0.004 0.011c0.062-0.161 0.156-0.308 0.277-0.434 0.123-0.117 0.269-0.21 0.43-0.27 0.358-0.135 0.754-0.135 1.112 0 0.162 0.064 0.309 0.159 0.432 0.281 0.121 0.123 0.214 0.268 0.276 0.427 0.063 0.159 0.1 0.343 0.1 0.536 0 0.006-0 0.012-0 0.018v-0.001zM8.353 29.944c0-0.007 0-0.016 0-0.024 0-0.15-0.026-0.294-0.073-0.427l0.003 0.009c-0.080-0.248-0.264-0.444-0.499-0.538l-0.006-0.002c-0.12-0.046-0.259-0.073-0.404-0.073s-0.284 0.027-0.412 0.075l0.008-0.003c-0.121 0.049-0.224 0.12-0.308 0.209l-0 0c-0.086 0.092-0.154 0.202-0.196 0.324l-0.002 0.006c-0.044 0.132-0.070 0.284-0.070 0.442s0.026 0.31 0.073 0.452l-0.003-0.010c0.081 0.248 0.265 0.443 0.501 0.536l0.006 0.002c0.261 0.095 0.548 0.095 0.809 0 0.118-0.046 0.223-0.116 0.309-0.206 0.087-0.097 0.154-0.209 0.196-0.331 0.050-0.142 0.073-0.292 0.070-0.442zM11.62 30.407l0.039 0.1c0.014-0.036 0.027-0.068 0.042-0.1s0.030-0.065 0.048-0.097l0.934-1.643c0.018-0.028 0.035-0.047 0.053-0.052 0.020-0.006 0.042-0.010 0.065-0.010 0.004 0 0.008 0 0.012 0l-0.001-0h0.276v2.673h-0.327v-2.049c-0.001-0.014-0.001-0.030-0.001-0.046s0-0.032 0.001-0.048l-0 0.002-0.94 1.666c-0.012 0.026-0.031 0.046-0.055 0.061l-0.001 0c-0.022 0.013-0.049 0.021-0.078 0.021-0.001 0-0.002 0-0.003-0h-0.052c-0.001 0-0.002 0-0.003 0-0.028 0-0.055-0.008-0.078-0.022l0.001 0c-0.024-0.015-0.043-0.035-0.055-0.060l-0-0.001-0.967-1.677v2.145h-0.316v-2.667h0.276c0.004-0 0.009-0 0.014-0 0.023 0 0.044 0.003 0.065 0.009l-0.002-0c0.023 0.011 0.041 0.028 0.051 0.051l0.955 1.645c0.017 0.027 0.033 0.058 0.046 0.091l0.001 0.004zM15.137 30.275v1.001h-0.366v-2.669h0.816c0.154-0.003 0.307 0.017 0.455 0.058 0.119 0.033 0.228 0.090 0.322 0.166 0.079 0.071 0.141 0.158 0.181 0.258l0.002 0.005c0.043 0.109 0.064 0.225 0.063 0.341 0 0.003 0 0.006 0 0.010 0 0.12-0.025 0.234-0.070 0.337l0.002-0.005c-0.046 0.106-0.113 0.195-0.196 0.266l-0.001 0.001c-0.091 0.078-0.199 0.139-0.318 0.175l-0.006 0.002c-0.142 0.044-0.292 0.065-0.441 0.062l-0.442-0.007zM15.137 29.988h0.442c0.097 0.001 0.192-0.012 0.284-0.041 0.079-0.026 0.147-0.065 0.206-0.116l-0.001 0.001c0.054-0.048 0.096-0.107 0.123-0.173l0.001-0.003c0.028-0.064 0.044-0.139 0.044-0.218 0-0.002 0-0.005-0-0.007v0c0.001-0.009 0.001-0.020 0.001-0.030 0-0.147-0.064-0.279-0.165-0.37l-0-0c-0.12-0.091-0.271-0.145-0.436-0.145-0.020 0-0.039 0.001-0.059 0.002l0.003-0h-0.442v1.1zM20.053 31.279h-0.289c-0.002 0-0.004 0-0.006 0-0.028 0-0.054-0.009-0.075-0.025l0 0c-0.020-0.016-0.037-0.037-0.047-0.061l-0-0.001-0.249-0.646h-1.249l-0.258 0.646c-0.010 0.024-0.026 0.044-0.045 0.059l-0 0c-0.021 0.016-0.048 0.026-0.077 0.026-0.002 0-0.004-0-0.005-0h-0.288l1.097-2.672h0.38l1.112 2.672zM18.243 30.287h1.032l-0.435-1.088c-0.029-0.068-0.057-0.152-0.080-0.238l-0.003-0.013-0.043 0.14c-0.012 0.043-0.027 0.081-0.040 0.113l-0.432 1.086zM21.634 28.619c0.022 0.012 0.041 0.028 0.055 0.048l1.6 2.015v-2.075h0.327v2.672h-0.183c-0.002 0-0.003 0-0.005 0-0.025 0-0.049-0.006-0.071-0.016l0.001 0c-0.023-0.013-0.042-0.030-0.058-0.049l-0-0-1.599-2.012c0.002 0.031 0.002 0.061 0 0.092v1.985h-0.327v-2.672h0.194c0.023 0 0.045 0.004 0.065 0.012zM26.313 30.217v1.062h-0.366v-1.062l-1.011-1.61h0.327c0.028-0.001 0.057 0.007 0.078 0.023 0.020 0.017 0.036 0.037 0.049 0.059l0.001 0.001 0.633 1.038c0.043 0.068 0.081 0.146 0.109 0.229l0.002 0.008 0.048-0.114c0.018-0.043 0.038-0.083 0.063-0.122l0.624-1.045c0.014-0.022 0.029-0.040 0.047-0.057l0-0c0.020-0.017 0.046-0.027 0.074-0.027 0.002 0 0.003 0 0.005 0h0.331l-1.013 1.617zM11.439 24.121c0.159 0.020 0.32 0.036 0.483 0.050 2.468-1.067 4.556-2.815 6.002-5.024 1.337-2.008 2.134-4.475 2.134-7.129 0-0.094-0.001-0.187-0.003-0.281l0 0.014-2.72-2.63c0.553 2.783 0.295 5.66-0.747 8.309s-2.825 4.966-5.15 6.691z"></path>
<path d="M10.468 23.999l0.073 0.014c2.485-1.719 4.379-4.119 5.439-6.891 0.599-1.518 0.946-3.277 0.946-5.117 0-1.257-0.162-2.476-0.467-3.637l0.022 0.1-3.873-3.746c1.213 2.328 1.925 5.083 1.925 8.005 0 0.681-0.039 1.353-0.114 2.014l0.008-0.081c-0.378 3.413-1.751 6.65-3.959 9.338zM23.606 14.841c-0.659 2.871-2.256 5.461-4.558 7.386-0.636 0.538-1.345 1.035-2.096 1.467l-0.070 0.037c1.951-0.563 3.638-1.511 5.048-2.764l-0.013 0.011c1.402-1.246 2.511-2.792 3.23-4.538l0.030-0.082-1.572-1.518z"></path>
<path d="M22.99 14.417l-2.237-2.163c-0.049 2.597-0.825 5.003-2.132 7.034l0.032-0.053c-1.361 2.116-3.211 3.808-5.397 4.945l-0.078 0.037h0.011c0.501 0 1.003-0.029 1.501-0.087 2.155-0.86 3.97-2.173 5.397-3.829l0.015-0.018c1.391-1.615 2.403-3.597 2.872-5.78l0.016-0.086zM10.792 3.143l-2.669-2.585c-2.386 0.892-4.437 2.459-5.887 4.498-1.388 1.923-2.224 4.325-2.236 6.921v0.003c0.009 2.733 0.96 5.385 2.703 7.536s4.178 3.679 6.92 4.341c2.448-2.884 3.881-6.447 4.091-10.172s-0.813-7.418-2.923-10.542zM29.156 14.020c-0.009-3.243-1.345-6.35-3.717-8.642-2.371-2.293-5.584-3.585-8.937-3.595-0.005 0-0.010 0-0.016 0-1.622 0-3.173 0.299-4.603 0.845l0.088-0.030 16.339 15.801c0.534-1.295 0.845-2.799 0.845-4.375 0-0.002 0-0.004 0-0.006v0z"></path>
</symbol>
<symbol id="icon-logo4" viewBox="0 0 60 32">
<path d="M9.229 9.692h-0.002c-1.684 0-3.049 1.35-3.049 3.015v0.002c0 1.665 1.365 3.015 3.048 3.015h0.002c1.684 0 3.049-1.35 3.049-3.015v-0.002c0-1.665-1.365-3.015-3.049-3.015zM31.73 8.728c-0.008-2.413-0.997-4.594-2.589-6.165l-0.001-0.001c-1.601-1.581-3.802-2.558-6.23-2.562h-0.001c-2.431 0.002-4.633 0.979-6.237 2.562l0.001-0.001c-1.593 1.572-2.582 3.753-2.59 6.166v12.757s17.645-1.944 17.647-12.753v-0.002zM0 25.669c0.006 1.679 0.694 3.196 1.802 4.29l0.001 0.001c1.115 1.1 2.646 1.781 4.336 1.785h0.001c1.69-0.004 3.221-0.684 4.336-1.784l-0.001 0.001c1.108-1.094 1.796-2.61 1.803-4.287v-8.876s-12.278 1.354-12.278 8.873zM6.14 27.26c-0.319 0-0.63-0.093-0.893-0.268-0.262-0.174-0.466-0.417-0.589-0.703l-0.004-0.010c-0.077-0.18-0.123-0.389-0.123-0.609 0-0.44 0.18-0.838 0.471-1.123l0-0c0.293-0.288 0.694-0.465 1.138-0.465 0.221 0 0.433 0.044 0.625 0.125l-0.011-0.004c0.294 0.12 0.545 0.324 0.722 0.585 0.17 0.248 0.272 0.555 0.272 0.885 0 0.22-0.045 0.429-0.126 0.619l0.004-0.010c-0.166 0.394-0.475 0.7-0.86 0.859l-0.011 0.004c-0.182 0.077-0.394 0.122-0.616 0.122h-0v-0.006zM18.671 26.225h-1.257v1.297h-0.653v-3.174h2.067v0.53h-1.414v0.819h1.256v0.528zM21.815 26.007c0 0.313-0.056 0.586-0.166 0.822s-0.269 0.417-0.476 0.545c-0.194 0.121-0.43 0.192-0.682 0.192-0.009 0-0.017-0-0.026-0l0.001 0c-0.263 0-0.497-0.063-0.703-0.19-0.209-0.131-0.373-0.315-0.477-0.533l-0.003-0.008c-0.109-0.23-0.172-0.499-0.172-0.783 0-0.010 0-0.020 0-0.029l-0 0.001v-0.156c0-0.313 0.056-0.588 0.167-0.825 0.114-0.238 0.273-0.42 0.478-0.547 0.206-0.128 0.442-0.192 0.707-0.192 0.263 0 0.499 0.064 0.703 0.192 0.207 0.127 0.366 0.309 0.478 0.547 0.113 0.237 0.17 0.511 0.17 0.822v0.141zM21.152 25.863c0-0.333-0.060-0.586-0.179-0.759-0.106-0.157-0.284-0.26-0.485-0.26-0.009 0-0.018 0-0.027 0.001l0.001-0c-0.008-0-0.016-0.001-0.025-0.001-0.2 0-0.377 0.101-0.482 0.255l-0.001 0.002c-0.119 0.17-0.179 0.42-0.181 0.75v0.155c0 0.324 0.060 0.576 0.179 0.755s0.291 0.268 0.515 0.268c0.008 0 0.017 0.001 0.026 0.001 0.2 0 0.375-0.101 0.479-0.255l0.001-0.002c0.118-0.173 0.177-0.424 0.179-0.755v-0.155zM23.936 26.689c0-0.005 0-0.012 0-0.018 0-0.108-0.051-0.204-0.131-0.264l-0.001-0.001c-0.087-0.067-0.244-0.137-0.471-0.21-0.209-0.065-0.387-0.139-0.557-0.227l0.019 0.009c-0.361-0.194-0.541-0.457-0.541-0.787 0-0.171 0.048-0.324 0.144-0.458s0.236-0.24 0.417-0.316c0.181-0.076 0.385-0.114 0.61-0.114s0.429 0.042 0.606 0.124c0.177 0.082 0.315 0.197 0.412 0.347 0.099 0.15 0.148 0.32 0.148 0.51h-0.654c0-0.145-0.046-0.258-0.138-0.338s-0.22-0.122-0.386-0.122c-0.16 0-0.284 0.034-0.373 0.103-0.081 0.058-0.133 0.152-0.133 0.258 0 0.003 0 0.006 0 0.008v-0c0 0.103 0.052 0.189 0.155 0.259 0.104 0.070 0.258 0.135 0.46 0.196 0.372 0.112 0.644 0.251 0.813 0.417s0.255 0.372 0.255 0.618c0 0.275-0.104 0.491-0.312 0.647s-0.487 0.234-0.839 0.234c-0.244 0-0.467-0.045-0.667-0.133-0.189-0.080-0.345-0.206-0.458-0.365l-0.002-0.003c-0.098-0.147-0.156-0.327-0.156-0.521 0-0.007 0-0.014 0-0.020l-0 0.001h0.656c0 0.35 0.209 0.525 0.628 0.525 0.156 0 0.277-0.031 0.365-0.094 0.079-0.057 0.131-0.149 0.131-0.253 0-0.005-0-0.009-0-0.014l0 0.001zM27.426 24.878h-0.972v2.644h-0.655v-2.644h-0.959v-0.53h2.585v0.53zM29.711 26.147h-1.255v0.85h1.474v0.525h-2.128v-3.174h2.124v0.53h-1.47v0.756h1.256v0.513zM31.489 26.361h-0.521v1.162h-0.655v-3.174h1.18c0.375 0 0.665 0.083 0.868 0.251s0.305 0.403 0.305 0.708c0 0.216-0.047 0.397-0.141 0.543-0.105 0.152-0.249 0.271-0.419 0.341l-0.006 0.002 0.687 1.297v0.030h-0.703l-0.595-1.162zM30.968 25.831h0.527c0.164 0 0.292-0.042 0.382-0.124 0.084-0.082 0.136-0.197 0.136-0.323 0-0.008-0-0.017-0.001-0.025l0 0.001c0-0.15-0.043-0.268-0.129-0.353-0.085-0.086-0.214-0.129-0.391-0.129h-0.525v0.953zM34.931 26.404v1.119h-0.653v-3.174h1.238c0.238 0 0.447 0.043 0.627 0.131 0.182 0.087 0.322 0.211 0.419 0.372s0.146 0.342 0.146 0.548c0 0.311-0.106 0.557-0.32 0.737-0.213 0.179-0.507 0.268-0.883 0.268h-0.573zM34.931 25.875h0.585c0.173 0 0.304-0.041 0.394-0.122 0.092-0.082 0.137-0.198 0.137-0.35 0-0.007 0.001-0.015 0.001-0.023 0-0.136-0.052-0.261-0.138-0.354l0 0c-0.092-0.096-0.218-0.145-0.38-0.149h-0.6v0.997zM39.069 26.147h-1.256v0.85h1.474v0.525h-2.128v-3.174h2.124v0.53h-1.469v0.756h1.255v0.513zM42.104 24.878h-0.972v2.644h-0.655v-2.644h-0.959v-0.53h2.585v0.53zM44.388 26.147h-1.255v0.85h1.474v0.525h-2.128v-3.174h2.124v0.53h-1.47v0.756h1.256v0.513zM46.166 26.361h-0.521v1.162h-0.654v-3.174h1.18c0.375 0 0.665 0.083 0.868 0.251s0.305 0.403 0.305 0.708c0 0.216-0.047 0.397-0.141 0.543-0.105 0.152-0.25 0.271-0.419 0.341l-0.006 0.002 0.687 1.297v0.030h-0.702l-0.595-1.162zM45.645 25.831h0.528c0.164 0 0.292-0.042 0.382-0.124 0.084-0.082 0.135-0.196 0.135-0.322 0-0.009-0-0.017-0.001-0.026l0 0.001c0-0.15-0.042-0.268-0.129-0.353-0.084-0.086-0.214-0.129-0.39-0.129h-0.525v0.953zM49.488 26.689c0-0.005 0-0.012 0-0.018 0-0.108-0.051-0.204-0.131-0.264l-0.001-0.001c-0.087-0.067-0.244-0.137-0.471-0.21-0.209-0.065-0.387-0.139-0.557-0.227l0.019 0.009c-0.361-0.194-0.541-0.457-0.541-0.787 0-0.171 0.048-0.324 0.144-0.458s0.236-0.24 0.417-0.316c0.181-0.076 0.385-0.114 0.61-0.114s0.429 0.042 0.606 0.124c0.177 0.082 0.315 0.197 0.412 0.347s0.148 0.32 0.148 0.51h-0.655c0-0.145-0.045-0.258-0.137-0.338s-0.22-0.122-0.386-0.122c-0.16 0-0.284 0.034-0.373 0.103-0.081 0.058-0.133 0.152-0.133 0.258 0 0.003 0 0.006 0 0.008v-0c0 0.103 0.052 0.189 0.155 0.259 0.104 0.070 0.258 0.135 0.46 0.196 0.372 0.112 0.644 0.251 0.813 0.417s0.255 0.372 0.255 0.618c0 0.275-0.104 0.491-0.313 0.647-0.207 0.156-0.487 0.234-0.839 0.234-0.244 0-0.467-0.045-0.667-0.133-0.189-0.080-0.345-0.206-0.458-0.365l-0.002-0.003c-0.098-0.147-0.156-0.327-0.156-0.521 0-0.007 0-0.014 0-0.020l-0 0.001h0.656c0 0.35 0.209 0.525 0.628 0.525 0.156 0 0.277-0.031 0.365-0.094 0.079-0.057 0.13-0.149 0.13-0.253 0-0.005-0-0.009-0-0.014l0 0.001z"></path>
</symbol>
<symbol id="icon-logo5" viewBox="0 0 40 32">
<path d="M3.056 26.742c0.157 0.194 0.24 0.438 0.236 0.688 0.001 0.016 0.001 0.034 0.001 0.053 0 0.324-0.141 0.615-0.365 0.815l-0.001 0.001c-0.304 0.231-0.681 0.343-1.061 0.317h-1.865v-4.361h1.827c0.031-0.002 0.067-0.003 0.103-0.003 0.341 0 0.657 0.11 0.914 0.297l-0.004-0.003c0.218 0.184 0.355 0.457 0.355 0.763 0 0.018-0.001 0.037-0.002 0.055l0-0.003c0.011 0.24-0.065 0.477-0.212 0.667-0.142 0.173-0.338 0.293-0.556 0.34 0.247 0.046 0.471 0.177 0.63 0.373zM0.868 26.084h0.78c0.178 0.014 0.354-0.038 0.497-0.145 0.104-0.095 0.169-0.231 0.169-0.383 0-0.015-0.001-0.030-0.002-0.045l0 0.002c0.001-0.011 0.001-0.024 0.001-0.037 0-0.153-0.064-0.291-0.167-0.389l-0-0c-0.124-0.093-0.28-0.149-0.45-0.149-0.022 0-0.043 0.001-0.064 0.003l0.003-0h-0.767v1.144zM2.222 27.756c0.114-0.1 0.186-0.246 0.186-0.408 0-0.012-0-0.024-0.001-0.036l0 0.002c0.001-0.010 0.001-0.021 0.001-0.032 0-0.166-0.073-0.314-0.189-0.416l-0.001-0.001c-0.132-0.099-0.299-0.159-0.48-0.159-0.018 0-0.036 0.001-0.054 0.002l0.002-0h-0.818v1.199h0.829c0.187 0.011 0.372-0.042 0.524-0.151zM6.789 28.617l-1.016-1.704h-0.382v1.704h-0.874v-4.361h1.654c0.034-0.003 0.074-0.004 0.114-0.004 0.396 0 0.76 0.142 1.042 0.377l-0.003-0.002c0.245 0.251 0.397 0.595 0.397 0.974 0 0.313-0.103 0.601-0.277 0.834l0.003-0.004c-0.204 0.235-0.483 0.392-0.789 0.443l1.083 1.743h-0.951zM5.392 26.318h0.715c0.497 0 0.745-0.22 0.745-0.66 0.001-0.011 0.001-0.024 0.001-0.037 0-0.176-0.070-0.336-0.184-0.453l0 0c-0.133-0.112-0.306-0.18-0.495-0.18-0.024 0-0.047 0.001-0.070 0.003l0.003-0h-0.724l0.009 1.328zM11.568 27.739h-1.742l-0.308 0.878h-0.916l1.6-4.313h0.991l1.593 4.312h-0.916l-0.301-0.878zM11.335 27.079l-0.637-1.84-0.637 1.84h1.273zM17.55 28.617h-0.869l-1.945-2.965v2.965h-0.866v-4.361h0.866l1.945 2.982v-2.982h0.868v4.361zM22.502 27.573c-0.182 0.33-0.45 0.593-0.775 0.764l-0.010 0.005c-0.378 0.191-0.797 0.286-1.22 0.274h-1.546v-4.361h1.546c0.020-0.001 0.044-0.001 0.067-0.001 0.42 0 0.817 0.1 1.168 0.277l-0.015-0.007c0.332 0.168 0.606 0.433 0.785 0.761 0.171 0.333 0.272 0.727 0.272 1.144s-0.1 0.811-0.278 1.158l0.007-0.014zM21.509 27.469c0.239-0.278 0.384-0.642 0.384-1.041s-0.145-0.763-0.386-1.043l0.002 0.002c-0.264-0.232-0.612-0.374-0.993-0.374-0.033 0-0.065 0.001-0.098 0.003l0.004-0h-0.603v2.823h0.603c0.028 0.002 0.061 0.003 0.094 0.003 0.381 0 0.729-0.141 0.994-0.375l-0.002 0.001zM12.112 0s11.201 4.246 10.962 10.39v10.392s-11.193-4.248-10.959-10.392l-0.003-10.39zM33.053 18.349c2.005-1.402 4.428-2.346 7.049-2.628l0.068-0.006v-3.253c-2.995 1.181-5.437 3.227-7.081 5.827l-0.035 0.060z"></path>
<path d="M31.782 19.329c1.749-3.487 4.693-6.158 8.283-7.513l0.105-0.035v-9.373s-15.952 6.048-15.615 14.797v14.796s0.711-0.27 1.829-0.778c0-0.473 0-0.95 0.051-1.43 0.35-4.205 2.342-7.887 5.325-10.446l0.021-0.017z"></path>
<path d="M30.266 24.825c0.084-1.026 0.27-2.041 0.558-3.030-2.038 2.401-3.303 5.514-3.378 8.921l-0 0.016c1.299-0.625 2.304-1.165 3.286-1.741l-0.218 0.118c-0.191-0.908-0.3-1.952-0.3-3.021 0-0.445 0.019-0.885 0.056-1.32l-0.004 0.057zM30.9 24.878c-0.031 0.359-0.049 0.777-0.049 1.199 0 0.948 0.090 1.874 0.261 2.772l-0.015-0.092c4.357-2.619 9.255-6.664 9.066-11.553v-0.426c-3.246 0.375-6.107 1.788-8.297 3.894l0.005-0.005c-0.501 1.234-0.846 2.664-0.968 4.158l-0.003 0.052z"></path>
</symbol>
<symbol id="icon-logo6" viewBox="0 0 61 32">
<path d="M30.461 15.271c-0.246-0.358-0.393-0.801-0.393-1.278 0-0.050 0.002-0.1 0.005-0.15l-0 0.007v-2.062c0-0.632 0.129-1.112 0.386-1.441s0.7-0.492 1.327-0.49c0.589 0 1.008 0.14 1.255 0.419 0.27 0.357 0.401 0.793 0.37 1.232v0.485h-1.053v-0.49c0-0.019 0.001-0.042 0.001-0.064 0-0.147-0.011-0.291-0.033-0.432l0.002 0.016c-0.017-0.114-0.071-0.212-0.15-0.285l-0-0c-0.093-0.070-0.21-0.113-0.338-0.113-0.015 0-0.031 0.001-0.046 0.002l0.002-0c-0.013-0.001-0.029-0.002-0.044-0.002-0.135 0-0.259 0.045-0.359 0.12l0.002-0.001c-0.089 0.081-0.151 0.189-0.174 0.311l-0.001 0.004c-0.026 0.14-0.041 0.301-0.041 0.466 0 0.015 0 0.031 0 0.046l-0-0.002v2.501c-0.017 0.242 0.030 0.483 0.135 0.703 0.052 0.074 0.125 0.133 0.211 0.17 0.061 0.027 0.133 0.043 0.209 0.043 0.022 0 0.044-0.001 0.066-0.004l-0.003 0c0.013 0.001 0.028 0.002 0.043 0.002 0.125 0 0.241-0.043 0.332-0.116l-0.001 0.001c0.082-0.078 0.139-0.183 0.156-0.301l0-0.003c0.021-0.136 0.034-0.293 0.034-0.453 0-0.017-0-0.034-0-0.050l0 0.003v-0.508h1.053v0.464c0.003 0.038 0.004 0.083 0.004 0.128 0 0.437-0.138 0.842-0.373 1.174l0.004-0.006c-0.242 0.306-0.654 0.46-1.261 0.46s-1.065-0.163-1.325-0.504zM34.85 15.292c-0.266-0.32-0.4-0.788-0.4-1.407v-2.168c0-0.612 0.133-1.076 0.4-1.39s0.711-0.47 1.335-0.47c0.62 0 1.062 0.157 1.329 0.47 0.266 0.315 0.402 0.778 0.402 1.39v2.168c0 0.613-0.136 1.083-0.406 1.405s-0.711 0.483-1.324 0.483c-0.613 0-1.067-0.163-1.335-0.481zM36.676 14.772c0.095-0.201 0.139-0.421 0.127-0.642v-2.655c0.001-0.021 0.002-0.047 0.002-0.072 0-0.203-0.047-0.394-0.13-0.565l0.003 0.008c-0.054-0.076-0.127-0.135-0.212-0.172l-0.003-0.001c-0.061-0.026-0.131-0.042-0.206-0.042-0.025 0-0.051 0.002-0.075 0.005l0.003-0c-0.021-0.003-0.046-0.005-0.071-0.005-0.075 0-0.147 0.016-0.212 0.044l0.003-0.001c-0.088 0.038-0.162 0.097-0.215 0.171l-0.001 0.001c-0.095 0.197-0.139 0.413-0.126 0.629v2.668c-0.014 0.221 0.030 0.441 0.126 0.641 0.061 0.068 0.138 0.123 0.223 0.159 0.079 0.035 0.172 0.056 0.269 0.056 0.195 0 0.371-0.082 0.495-0.214l0-0v-0.012zM39.183 9.92h1.135l0.853 4.001 0.873-4h1.104l0.111 5.774h-0.815l-0.087-4.013-0.843 4.014h-0.654l-0.873-4.028-0.081 4.028h-0.825l0.102-5.774zM44.532 9.92h1.767c1.019 0 1.528 0.547 1.528 1.64 0 1.046-0.536 1.569-1.608 1.568h-0.603v2.567h-1.091l0.007-5.774zM46.042 12.388c0.028 0.003 0.060 0.005 0.092 0.005 0.194 0 0.372-0.071 0.509-0.189l-0.001 0.001c0.125-0.195 0.18-0.424 0.157-0.652 0.001-0.019 0.001-0.042 0.001-0.064 0-0.163-0.020-0.322-0.056-0.474l0.003 0.014c-0.033-0.12-0.111-0.217-0.216-0.274l-0.002-0.001c-0.126-0.059-0.273-0.094-0.429-0.094-0.020 0-0.041 0.001-0.061 0.002l0.003-0h-0.423v1.725h0.423zM49.4 9.92h1.172l1.202 5.775h-1.017l-0.238-1.332h-1.045l-0.245 1.332h-1.032l1.202-5.774zM50.401 13.695l-0.408-2.424-0.408 2.424h0.816zM52.745 9.92h0.764l1.462 3.294v-3.293h0.906v5.774h-0.726l-1.471-3.438v3.438h-0.936l0.002-5.774zM57.998 13.493l-1.216-3.565h1.024l0.742 2.29 0.696-2.29h1.001l-1.2 3.565v2.201h-1.047v-2.201zM32.146 18.22v0.302h-0.891v2.346h-0.373v-2.346h-0.895v-0.302h2.158zM34.937 20.868h-0.288c-0.002 0-0.005 0-0.007 0-0.028 0-0.054-0.010-0.074-0.026l0 0c-0.021-0.015-0.038-0.036-0.047-0.060l-0-0.001-0.257-0.629h-1.235l-0.257 0.629c-0.008 0.028-0.022 0.052-0.040 0.072l0-0c-0.020 0.016-0.047 0.025-0.075 0.025-0.002 0-0.004-0-0.006-0h-0.288l1.091-2.648h0.379l1.104 2.638zM33.13 19.884h1.030l-0.436-1.078c-0.028-0.067-0.056-0.15-0.078-0.235l-0.003-0.014c-0.015 0.050-0.028 0.099-0.041 0.14l-0.039 0.111-0.432 1.076zM36.818 20.607c0.068 0.004 0.136 0.004 0.204 0 0.059-0.005 0.118-0.016 0.175-0.031 0.054-0.012 0.106-0.029 0.157-0.048 0.048-0.019 0.096-0.042 0.146-0.065v-0.596h-0.436c-0.002 0-0.003 0-0.005 0-0.021 0-0.040-0.008-0.054-0.021l0 0c-0.013-0.011-0.022-0.028-0.022-0.047 0-0.001 0-0.002 0-0.003v0-0.203h0.847v1.014c-0.132 0.093-0.285 0.167-0.45 0.213l-0.011 0.003c-0.077 0.023-0.17 0.042-0.264 0.054l-0.009 0.001c-0.095 0.011-0.206 0.017-0.318 0.018h-0c-0.004 0-0.008 0-0.012 0-0.193 0-0.378-0.036-0.548-0.102l0.010 0.004c-0.169-0.066-0.314-0.16-0.436-0.278l0 0c-0.118-0.117-0.213-0.256-0.279-0.411l-0.003-0.008c-0.063-0.157-0.1-0.34-0.1-0.53 0-0.007 0-0.013 0-0.020v0.001c-0-0.005-0-0.012-0-0.018 0-0.192 0.036-0.376 0.102-0.546l-0.004 0.010c0.063-0.157 0.159-0.3 0.281-0.419 0.125-0.119 0.273-0.212 0.436-0.275 0.187-0.067 0.385-0.101 0.585-0.098 0.102 0 0.203 0.007 0.304 0.023 0.089 0.014 0.176 0.036 0.259 0.067 0.077 0.027 0.15 0.063 0.219 0.105 0.067 0.041 0.131 0.088 0.191 0.138l-0.106 0.163c-0.017 0.031-0.048 0.051-0.085 0.051v0c-0.025-0.001-0.048-0.009-0.068-0.021l0.001 0c-0.043-0.023-0.078-0.044-0.112-0.066l0.005 0.003c-0.042-0.025-0.090-0.049-0.14-0.069l-0.006-0.002c-0.056-0.023-0.123-0.043-0.193-0.058l-0.008-0.001c-0.079-0.015-0.171-0.023-0.264-0.023-0.005 0-0.009 0-0.014 0h0.001c-0.004-0-0.008-0-0.012-0-0.147 0-0.287 0.027-0.417 0.076l0.008-0.003c-0.125 0.049-0.232 0.12-0.321 0.21l-0 0c-0.087 0.092-0.156 0.201-0.201 0.323l-0.002 0.006c-0.046 0.132-0.073 0.283-0.073 0.442s0.027 0.31 0.076 0.451l-0.003-0.010c0.097 0.249 0.289 0.443 0.53 0.54l0.006 0.002c0.139 0.046 0.286 0.064 0.432 0.052zM40.296 20.566h1.191v0.302h-1.556v-2.648h0.373l-0.009 2.347zM42.727 20.868h-0.373v-2.648h0.373v2.648zM44.115 18.232c0.022 0.012 0.041 0.029 0.056 0.048l1.595 1.996c-0.001-0.014-0.002-0.031-0.002-0.047s0.001-0.033 0.002-0.049l-0 0.002v-1.973h0.325v2.659h-0.188c-0.004 0-0.009 0.001-0.014 0.001-0.025 0-0.048-0.005-0.068-0.015l0.001 0c-0.023-0.014-0.042-0.030-0.058-0.050l-0-0-1.593-1.994v2.059h-0.312v-2.648h0.194c0.021 0 0.042 0.005 0.061 0.014zM48.839 18.22v0.291h-1.322v0.874h1.072v0.281h-1.072v0.904h1.322v0.291h-1.706v-2.642h1.706zM9.738 1.864l16.569 4.521v15.841l-16.568-4.519v-15.843zM8.676 0.514v17.964l18.691 5.102v-17.962l-18.691-5.105z"></path>
<path d="M18.693 31.918l-18.693-5.106v-17.962l18.693 5.104v17.964z"></path>
<path d="M8.986 1.661l16.352 4.464-6.954 6.685-16.354-4.466 6.956-6.682zM8.676 0.514l-8.676 8.337 18.693 5.104 8.675-8.338-18.692-5.103zM19.746 30.907l7.621-7.326-7.621-2.082v9.408z"></path>
</symbol>
<symbol id="icon-send" viewBox="0 0 32 32">
<path d="M32 0l-32 18 10.227 3.787 15.773-14.787-11.997 16.187 0.009 0.003-0.012-0.003v8.813l5.735-6.691 7.267 2.691 4.999-28z"></path>
</symbol>
<symbol id="icon-smartphone" viewBox="0 0 20 32">
<path d="M17 0h-14c-1.654 0-3 1.346-3 3v26c0 1.654 1.346 3 3 3h14c1.654 0 3-1.346 3-3v-26c0-1.654-1.346-3-3-3zM3 2h14c0.552 0 1 0.448 1 1v0 21h-16v-21c0-0.552 0.448-1 1-1v0zM17 30h-14c-0.552 0-1-0.448-1-1v0-3h16v3c0 0.552-0.448 1-1 1v0z"></path>
<path d="M4.708 27.478c0.18 0.163 0.293 0.399 0.293 0.66s-0.113 0.497-0.292 0.659l-0.001 0.001c-0.186 0.17-0.435 0.275-0.708 0.275s-0.522-0.104-0.709-0.275l0.001 0.001c-0.18-0.163-0.293-0.399-0.293-0.66s0.113-0.497 0.292-0.659l0.001-0.001c0.186-0.17 0.435-0.275 0.708-0.275s0.522 0.104 0.709 0.275l-0.001-0.001z"></path>
</symbol>
<symbol id="icon-twitter" viewBox="0 0 32 32">
<path d="M32 6.078c-1.19 0.522-2.458 0.868-3.78 1.036 1.36-0.812 2.398-2.088 2.886-3.626-1.268 0.756-2.668 1.29-4.16 1.588-1.204-1.282-2.92-2.076-4.792-2.076-3.632 0-6.556 2.948-6.556 6.562 0 0.52 0.044 1.020 0.152 1.496-5.454-0.266-10.28-2.88-13.522-6.862-0.566 0.982-0.898 2.106-0.898 3.316 0 2.272 1.17 4.286 2.914 5.452-1.054-0.020-2.088-0.326-2.964-0.808 0 0.020 0 0.046 0 0.072 0 3.188 2.274 5.836 5.256 6.446-0.534 0.146-1.116 0.216-1.72 0.216-0.42 0-0.844-0.024-1.242-0.112 0.85 2.598 3.262 4.508 6.13 4.57-2.232 1.746-5.066 2.798-8.134 2.798-0.538 0-1.054-0.024-1.57-0.090 2.906 1.874 6.35 2.944 10.064 2.944 12.072 0 18.672-10 18.672-18.668 0-0.29-0.010-0.57-0.024-0.848 1.302-0.924 2.396-2.078 3.288-3.406z"></path>
</symbol>
<symbol id="icon-close" viewBox="0 0 32 32">
<path d="M32 3.223l-3.223-3.223-12.777 12.777-12.777-12.777-3.223 3.223 12.777 12.777-12.777 12.777 3.223 3.223 12.777-12.777 12.777 12.777 3.223-3.223-12.777-12.777 12.777-12.777z"></path>
</symbol>
<symbol id="icon-mail" viewBox="0 0 43 32">
<path d="M37.333 0h-32c-2.2 0-3.98 1.8-3.98 4l-0.020 24c0 2.2 1.8 4 4 4h32c2.2 0 4-1.8 4-4v-24c0-2.2-1.8-4-4-4zM36.533 8.5l-14.14 8.84c-0.64 0.4-1.48 0.4-2.12 0l-14.14-8.84c-0.5-0.32-0.8-0.86-0.8-1.44 0-1.34 1.46-2.14 2.6-1.44l13.4 8.38 13.4-8.38c1.14-0.7 2.6 0.1 2.6 1.44 0 0.58-0.3 1.12-0.8 1.44z"></path>
</symbol>
<symbol id="icon-tel" viewBox="0 0 32 32">
<path d="M27.419 20.852l-4.201-0.48c-1.009-0.116-2.002 0.232-2.713 0.943l-3.044 3.044c-4.681-2.382-8.519-6.203-10.901-10.901l3.060-3.060c0.711-0.711 1.059-1.704 0.943-2.713l-0.48-4.168c-0.198-1.671-1.604-2.928-3.292-2.928h-2.862c-1.869 0-3.424 1.555-3.308 3.424 0.877 14.126 12.174 25.407 26.284 26.284 1.869 0.116 3.424-1.439 3.424-3.308v-2.861c0.016-1.671-1.241-3.077-2.911-3.275z"></path>
</symbol>
<symbol id="icon-name" viewBox="0 0 32 32">
<path d="M16 16c4.42 0 8-3.58 8-8s-3.58-8-8-8c-4.42 0-8 3.58-8 8s3.58 8 8 8zM16 20c-5.34 0-16 2.68-16 8v2c0 1.1 0.9 2 2 2h28c1.1 0 2-0.9 2-2v-2c0-5.32-10.66-8-16-8z"></path>
</symbol>
<symbol id="icon-check" viewBox="0 0 34 32">
<path fill="#fff" style="fill: var(--color1, #fff); stroke: var(--color1, #fff)" stroke="#fff" stroke-linejoin="miter" stroke-linecap="butt" stroke-miterlimit="4" stroke-width="0.4267" d="M8.442 16.537l-0.147-0.14-2.205 2.088 7.767 7.41 16.318-15.567-2.19-2.089-14.128 13.465-5.416-5.167z"></path>
</symbol>
<symbol id="icon-on" viewBox="0 0 42 32">
<path d="M6.263 15.205l-0.22-0.21-3.307 3.132 11.651 11.114 24.477-23.351-3.285-3.134-21.192 20.197-8.124-7.75z"></path>
</symbol>
<symbol id="icon-off" viewBox="0 0 34 32">
<path d="M30.341 3.556v24.889h-26.548v-24.889h26.548zM30.341 0h-26.548c-2.086 0-3.793 1.6-3.793 3.556v24.889c0 1.956 1.707 3.556 3.793 3.556h26.548c2.086 0 3.793-1.6 3.793-3.556v-24.889c0-1.956-1.707-3.556-3.793-3.556z"></path>
</symbol>
<symbol id="icon-cross" viewBox="0 0 24 24">
<path d="M23.579 2.375L21.204 0l-9.416 9.414L2.374 0-.001 2.375l9.414 9.414-9.414 9.416 2.375 2.375 9.414-9.416 9.416 9.416 2.375-2.375-9.416-9.416 9.416-9.414z"/>
</symbol>
<symbol id="icon-menu" viewBox="0 0 36 24">
<path d="M0 4V0h36v4H0zm0 10h36v-3.999H0V14zm0 10h36v-4H0v4z"/>
</symbol>
</defs>
</svg>
